  0
SECTION
  2
HEADER
  9
$ANGBASE
  50
0.0
  9
$ANGDIR
  70
1
  9
$MEASUREMENT
  70
1
  0
ENDSEC
  0
SECTION
  2
TABLES
  0
TABLE
  2
LTYPE
  70
4
  0
LTYPE
  5
40F
  2
CONTINUOUS
  70
0
  3
Solid line
  72
65
  73
0
  40
0.0
  0
LTYPE
  5
410
  2
DASHDOT
 70
0
  3
Dash Dot ____ _ ____ _
 72
65
 73
4
 40
2.0
 49
1.25
 49
-0.25
 49
0.25
 49
-0.25
  0
LTYPE
  5
411
  2
DASHED
 70
0
  3
Dashed __ __ __ __ __
 72
65
 73
2
 40
0.75
 49
0.5
 49
-0.25
  0
LTYPE
  5
43B
  2
DOTTED
 70
0
  3
Dotted .  .  .  .
 72
65
 73
2
 40
0.2
 49
0.0
 49
-0.2
  0
ENDTAB
  0
TABLE
  2
STYLE
  70
4
  0
STYLE
  2
KICAD
  70
0
  40
0
  41
1
  42
1
  50
0
  71
0
  3
isocp.shx
  0
STYLE
  2
KICADB
  70
0
  40
0
  41
1
  42
1
  50
0
  71
0
  3
isocp.shx
  0
STYLE
  2
KICADI
  70
0
  40
0
  41
1
  42
1
  50
15
  71
0
  3
isocp.shx
  0
STYLE
  2
KICADBI
  70
0
  40
0
  41
1
  42
1
  50
15
  71
0
  3
isocp.shx
  0
ENDTAB
  0
TABLE
  2
LAYER
  70
1
  0
LAYER
  2
BLACK
  70
0
  62
7
  6
CONTINUOUS
  0
ENDTAB
  0
ENDSEC
  0
SECTION
  2
ENTITIES
0
LINE
8
BLACK
6
CONTINUOUS
10
144.1
20
-74.8792
11
144.1
21
-41.5022
0
LINE
8
BLACK
6
CONTINUOUS
10
125.501
20
-74.8792
11
144.1
21
-74.8792
0
LINE
8
BLACK
6
CONTINUOUS
10
125.501
20
-41.5036
11
125.501
21
-74.8792
0
ARC
8
BLACK
10
134.734
20
-33.1216
40
67.5458
50
-103.981
51
-76.0628
0
ARC
8
BLACK
10
151.59
20
-100.923
40
2.31941
50
14.2645
51
104.647
0
ARC
8
BLACK
10
159.766
20
-113.525
40
2.53647
50
-164.015
51
-74.0152
0
ARC
8
BLACK
10
210.312
20
-100.914
40
2.53647
50
-74.0152
51
15.9848
0
ARC
8
BLACK
10
117.856
20
-100.8
40
2.20556
50
75.3236
51
165.324
0
ARC
8
BLACK
10
211.565
20
-85.964
40
2.31941
50
104.265
51
194.647
0
ARC
8
BLACK
10
242.644
20
-53.8011
40
2.31941
50
-165.735
51
-75.3527
0
ARC
8
BLACK
10
239.331
20
-39.7637
40
2.31941
50
104.265
51
194.647
0
ARC
8
BLACK
10
247.294
20
-72.0471
40
2.53647
50
-74.0152
51
15.9848
0
ARC
8
BLACK
10
243.929
20
-58.4835
40
2.53647
50
15.9848
51
105.985
0
ARC
8
BLACK
10
238.062
20
-35.0774
40
2.53647
50
-74.0152
51
15.9848
0
ARC
8
BLACK
10
234.683
20
-21.5138
40
2.53647
50
15.9848
51
105.985
0
ARC
8
BLACK
10
109.791
20
-113.5
40
2.54117
50
-104.175
51
-14.1751
0
ARC
8
BLACK
10
59.2709
20
-100.952
40
2.54117
50
165.825
51
255.825
0
ARC
8
BLACK
10
58.1279
20
-85.8647
40
2.20556
50
-14.6764
51
75.3236
0
ARC
8
BLACK
10
22.2631
20
-72.0471
40
2.54117
50
165.825
51
255.825
0
ARC
8
BLACK
10
25.6413
20
-58.4581
40
2.54117
50
75.8249
51
165.825
0
ARC
8
BLACK
10
26.8224
20
-53.8607
40
2.20556
50
-104.676
51
-14.6764
0
ARC
8
BLACK
10
30.3403
20
-39.6748
40
2.20556
50
-14.6764
51
75.3236
0
ARC
8
BLACK
10
31.5087
20
-35.1028
40
2.51344
50
165.964
51
255.964
0
ARC
8
BLACK
10
34.9123
20
-21.5265
40
2.52577
50
76.0336
51
166.034
0
LINE
8
BLACK
6
CONTINUOUS
10
153.838
20
-100.351
11
157.328
21
-114.224
0
LINE
8
BLACK
6
CONTINUOUS
10
112.255
20
-114.122
11
115.722
21
-100.241
0
LINE
8
BLACK
6
CONTINUOUS
10
32.4739
20
-40.2336
11
28.956
21
-54.4195
0
LINE
8
BLACK
6
CONTINUOUS
10
240.396
20
-54.3726
11
237.087
21
-40.3502
0
LINE
8
BLACK
6
CONTINUOUS
10
246.367
20
-57.785
11
249.733
21
-71.3486
0
LINE
8
BLACK
6
CONTINUOUS
10
29.0703
20
-34.4932
11
32.4612
21
-20.9169
0
LINE
8
BLACK
6
CONTINUOUS
10
19.7993
20
-71.4248
11
23.1775
21
-57.8358
0
LINE
8
BLACK
6
CONTINUOUS
10
58.6867
20
-83.7311
11
21.6408
21
-74.5109
0
LINE
8
BLACK
6
CONTINUOUS
10
56.8071
20
-100.33
11
60.2615
21
-86.4235
0
LINE
8
BLACK
6
CONTINUOUS
10
109.169
20
-115.964
11
58.6486
21
-103.416
0
LINE
8
BLACK
6
CONTINUOUS
10
211.01
20
-103.353
11
160.464
21
-115.964
0
LINE
8
BLACK
6
CONTINUOUS
10
209.321
20
-86.5505
11
212.75
21
-100.216
0
LINE
8
BLACK
6
CONTINUOUS
10
247.993
20
-74.4855
11
210.994
21
-83.7161
0
LINE
8
BLACK
6
CONTINUOUS
10
237.122
20
-20.8153
11
240.5
21
-34.3789
0
LINE
8
BLACK
6
CONTINUOUS
10
144.1
20
-41.5022
11
233.985
21
-19.0754
0
LINE
8
BLACK
6
CONTINUOUS
10
35.5219
20
-19.0754
11
125.501
21
-41.5036
0
LINE
8
BLACK
6
CONTINUOUS
10
184.134
20
-34.1186
11
197.718
21
-30.7317
0
LINE
8
BLACK
6
CONTINUOUS
10
197.718
20
-30.7317
11
201.105
21
-44.3158
0
LINE
8
BLACK
6
CONTINUOUS
10
201.105
20
-44.3158
11
187.521
21
-47.7027
0
LINE
8
BLACK
6
CONTINUOUS
10
187.521
20
-47.7027
11
184.134
21
-34.1186
0
LINE
8
BLACK
6
CONTINUOUS
10
165.65
20
-38.7272
11
179.234
21
-35.3403
0
LINE
8
BLACK
6
CONTINUOUS
10
179.234
20
-35.3403
11
182.621
21
-48.9245
0
LINE
8
BLACK
6
CONTINUOUS
10
182.621
20
-48.9245
11
169.037
21
-52.3114
0
LINE
8
BLACK
6
CONTINUOUS
10
169.037
20
-52.3114
11
165.65
21
-38.7272
0
LINE
8
BLACK
6
CONTINUOUS
10
108.825
20
-59.5851
11
122.41
21
-62.972
0
LINE
8
BLACK
6
CONTINUOUS
10
122.41
20
-62.972
11
119.023
21
-76.5562
0
LINE
8
BLACK
6
CONTINUOUS
10
119.023
20
-76.5562
11
105.439
21
-73.1693
0
LINE
8
BLACK
6
CONTINUOUS
10
105.439
20
-73.1693
11
108.825
21
-59.5851
0
LINE
8
BLACK
6
CONTINUOUS
10
137.899
20
-84.9126
11
151.483
21
-81.5257
0
LINE
8
BLACK
6
CONTINUOUS
10
151.483
20
-81.5257
11
154.87
21
-95.1098
0
LINE
8
BLACK
6
CONTINUOUS
10
154.87
20
-95.1098
11
141.286
21
-98.4967
0
LINE
8
BLACK
6
CONTINUOUS
10
141.286
20
-98.4967
11
137.899
21
-84.9126
0
LINE
8
BLACK
6
CONTINUOUS
10
118.08
20
-81.5256
11
131.664
21
-84.9125
0
LINE
8
BLACK
6
CONTINUOUS
10
131.664
20
-84.9125
11
128.277
21
-98.4967
0
LINE
8
BLACK
6
CONTINUOUS
10
128.277
20
-98.4967
11
114.693
21
-95.1098
0
LINE
8
BLACK
6
CONTINUOUS
10
114.693
20
-95.1098
11
118.08
21
-81.5256
0
LINE
8
BLACK
6
CONTINUOUS
10
193.339
20
-90.7231
11
206.923
21
-87.3362
0
LINE
8
BLACK
6
CONTINUOUS
10
206.923
20
-87.3362
11
210.31
21
-100.92
0
LINE
8
BLACK
6
CONTINUOUS
10
210.31
20
-100.92
11
196.725
21
-104.307
0
LINE
8
BLACK
6
CONTINUOUS
10
196.725
20
-104.307
11
193.339
21
-90.7231
0
LINE
8
BLACK
6
CONTINUOUS
10
174.854
20
-95.3317
11
188.439
21
-91.9448
0
LINE
8
BLACK
6
CONTINUOUS
10
188.439
20
-91.9448
11
191.825
21
-105.529
0
LINE
8
BLACK
6
CONTINUOUS
10
191.825
20
-105.529
11
178.241
21
-108.916
0
LINE
8
BLACK
6
CONTINUOUS
10
178.241
20
-108.916
11
174.854
21
-95.3317
0
LINE
8
BLACK
6
CONTINUOUS
10
156.37
20
-99.9403
11
169.954
21
-96.5534
0
LINE
8
BLACK
6
CONTINUOUS
10
169.954
20
-96.5534
11
173.341
21
-110.138
0
LINE
8
BLACK
6
CONTINUOUS
10
173.341
20
-110.138
11
159.757
21
-113.524
0
LINE
8
BLACK
6
CONTINUOUS
10
159.757
20
-113.524
11
156.37
21
-99.9403
0
LINE
8
BLACK
6
CONTINUOUS
10
99.608
20
-96.5533
11
113.192
21
-99.9402
0
LINE
8
BLACK
6
CONTINUOUS
10
113.192
20
-99.9402
11
109.805
21
-113.524
0
LINE
8
BLACK
6
CONTINUOUS
10
109.805
20
-113.524
11
96.2211
21
-110.137
0
LINE
8
BLACK
6
CONTINUOUS
10
96.2211
20
-110.137
11
99.608
21
-96.5533
0
LINE
8
BLACK
6
CONTINUOUS
10
81.1239
20
-91.9447
11
94.7081
21
-95.3316
0
LINE
8
BLACK
6
CONTINUOUS
10
94.7081
20
-95.3316
11
91.3212
21
-108.916
0
LINE
8
BLACK
6
CONTINUOUS
10
91.3212
20
-108.916
11
77.737
21
-105.529
0
LINE
8
BLACK
6
CONTINUOUS
10
77.737
20
-105.529
11
81.1239
21
-91.9447
0
LINE
8
BLACK
6
CONTINUOUS
10
62.6398
20
-87.3361
11
76.2239
21
-90.723
0
LINE
8
BLACK
6
CONTINUOUS
10
76.2239
20
-90.723
11
72.837
21
-104.307
0
LINE
8
BLACK
6
CONTINUOUS
10
72.837
20
-104.307
11
59.2529
21
-100.92
0
LINE
8
BLACK
6
CONTINUOUS
10
59.2529
20
-100.92
11
62.6398
21
-87.3361
0
LINE
8
BLACK
6
CONTINUOUS
10
230.319
20
-61.8695
11
243.903
21
-58.4826
0
LINE
8
BLACK
6
CONTINUOUS
10
243.903
20
-58.4826
11
247.29
21
-72.0668
0
LINE
8
BLACK
6
CONTINUOUS
10
247.29
20
-72.0668
11
233.706
21
-75.4537
0
LINE
8
BLACK
6
CONTINUOUS
10
233.706
20
-75.4537
11
230.319
21
-61.8695
0
LINE
8
BLACK
6
CONTINUOUS
10
211.835
20
-66.4781
11
225.419
21
-63.0912
0
LINE
8
BLACK
6
CONTINUOUS
10
225.419
20
-63.0912
11
228.806
21
-76.6754
0
LINE
8
BLACK
6
CONTINUOUS
10
228.806
20
-76.6754
11
215.222
21
-80.0623
0
LINE
8
BLACK
6
CONTINUOUS
10
215.222
20
-80.0623
11
211.835
21
-66.4781
0
LINE
8
BLACK
6
CONTINUOUS
10
193.351
20
-71.0868
11
206.935
21
-67.6999
0
LINE
8
BLACK
6
CONTINUOUS
10
206.935
20
-67.6999
11
210.322
21
-81.284
0
LINE
8
BLACK
6
CONTINUOUS
10
210.322
20
-81.284
11
196.738
21
-84.6709
0
LINE
8
BLACK
6
CONTINUOUS
10
196.738
20
-84.6709
11
193.351
21
-71.0868
0
LINE
8
BLACK
6
CONTINUOUS
10
174.867
20
-75.6954
11
188.451
21
-72.3085
0
LINE
8
BLACK
6
CONTINUOUS
10
188.451
20
-72.3085
11
191.838
21
-85.8926
0
LINE
8
BLACK
6
CONTINUOUS
10
191.838
20
-85.8926
11
178.254
21
-89.2795
0
LINE
8
BLACK
6
CONTINUOUS
10
178.254
20
-89.2795
11
174.867
21
-75.6954
0
LINE
8
BLACK
6
CONTINUOUS
10
156.383
20
-80.304
11
169.967
21
-76.9171
0
LINE
8
BLACK
6
CONTINUOUS
10
169.967
20
-76.9171
11
173.354
21
-90.5012
0
LINE
8
BLACK
6
CONTINUOUS
10
173.354
20
-90.5012
11
159.77
21
-93.8881
0
LINE
8
BLACK
6
CONTINUOUS
10
159.77
20
-93.8881
11
156.383
21
-80.304
0
LINE
8
BLACK
6
CONTINUOUS
10
99.5957
20
-76.917
11
113.18
21
-80.3039
0
LINE
8
BLACK
6
CONTINUOUS
10
113.18
20
-80.3039
11
109.793
21
-93.8881
0
LINE
8
BLACK
6
CONTINUOUS
10
109.793
20
-93.8881
11
96.2088
21
-90.5012
0
LINE
8
BLACK
6
CONTINUOUS
10
96.2088
20
-90.5012
11
99.5957
21
-76.917
0
LINE
8
BLACK
6
CONTINUOUS
10
81.1116
20
-72.3084
11
94.6957
21
-75.6953
0
LINE
8
BLACK
6
CONTINUOUS
10
94.6957
20
-75.6953
11
91.3088
21
-89.2795
0
LINE
8
BLACK
6
CONTINUOUS
10
91.3088
20
-89.2795
11
77.7247
21
-85.8926
0
LINE
8
BLACK
6
CONTINUOUS
10
77.7247
20
-85.8926
11
81.1116
21
-72.3084
0
LINE
8
BLACK
6
CONTINUOUS
10
62.6274
20
-67.6998
11
76.2116
21
-71.0867
0
LINE
8
BLACK
6
CONTINUOUS
10
76.2116
20
-71.0867
11
72.8247
21
-84.6708
0
LINE
8
BLACK
6
CONTINUOUS
10
72.8247
20
-84.6708
11
59.2405
21
-81.2839
0
LINE
8
BLACK
6
CONTINUOUS
10
59.2405
20
-81.2839
11
62.6274
21
-67.6998
0
LINE
8
BLACK
6
CONTINUOUS
10
44.1433
20
-63.0912
11
57.7275
21
-66.4781
0
LINE
8
BLACK
6
CONTINUOUS
10
57.7275
20
-66.4781
11
54.3406
21
-80.0622
0
LINE
8
BLACK
6
CONTINUOUS
10
54.3406
20
-80.0622
11
40.7564
21
-76.6753
0
LINE
8
BLACK
6
CONTINUOUS
10
40.7564
20
-76.6753
11
44.1433
21
-63.0912
0
LINE
8
BLACK
6
CONTINUOUS
10
25.6592
20
-58.4826
11
39.2433
21
-61.8695
0
LINE
8
BLACK
6
CONTINUOUS
10
39.2433
20
-61.8695
11
35.8564
21
-75.4536
0
LINE
8
BLACK
6
CONTINUOUS
10
35.8564
20
-75.4536
11
22.2723
21
-72.0667
0
LINE
8
BLACK
6
CONTINUOUS
10
22.2723
20
-72.0667
11
25.6592
21
-58.4826
0
LINE
8
BLACK
6
CONTINUOUS
10
221.09
20
-44.5376
11
234.674
21
-41.1507
0
LINE
8
BLACK
6
CONTINUOUS
10
234.674
20
-41.1507
11
238.061
21
-54.7349
0
LINE
8
BLACK
6
CONTINUOUS
10
238.061
20
-54.7349
11
224.477
21
-58.1218
0
LINE
8
BLACK
6
CONTINUOUS
10
224.477
20
-58.1218
11
221.09
21
-44.5376
0
LINE
8
BLACK
6
CONTINUOUS
10
202.606
20
-49.1462
11
216.19
21
-45.7593
0
LINE
8
BLACK
6
CONTINUOUS
10
216.19
20
-45.7593
11
219.577
21
-59.3435
0
LINE
8
BLACK
6
CONTINUOUS
10
219.577
20
-59.3435
11
205.992
21
-62.7304
0
LINE
8
BLACK
6
CONTINUOUS
10
205.992
20
-62.7304
11
202.606
21
-49.1462
0
LINE
8
BLACK
6
CONTINUOUS
10
184.121
20
-53.7549
11
197.706
21
-50.368
0
LINE
8
BLACK
6
CONTINUOUS
10
197.706
20
-50.368
11
201.092
21
-63.9521
0
LINE
8
BLACK
6
CONTINUOUS
10
201.092
20
-63.9521
11
187.508
21
-67.339
0
LINE
8
BLACK
6
CONTINUOUS
10
187.508
20
-67.339
11
184.121
21
-53.7549
0
LINE
8
BLACK
6
CONTINUOUS
10
165.637
20
-58.3635
11
179.221
21
-54.9766
0
LINE
8
BLACK
6
CONTINUOUS
10
179.221
20
-54.9766
11
182.608
21
-68.5607
0
LINE
8
BLACK
6
CONTINUOUS
10
182.608
20
-68.5607
11
169.024
21
-71.9476
0
LINE
8
BLACK
6
CONTINUOUS
10
169.024
20
-71.9476
11
165.637
21
-58.3635
0
LINE
8
BLACK
6
CONTINUOUS
10
147.153
20
-62.9721
11
160.737
21
-59.5852
0
LINE
8
BLACK
6
CONTINUOUS
10
160.737
20
-59.5852
11
164.124
21
-73.1693
0
LINE
8
BLACK
6
CONTINUOUS
10
164.124
20
-73.1693
11
150.54
21
-76.5562
0
LINE
8
BLACK
6
CONTINUOUS
10
150.54
20
-76.5562
11
147.153
21
-62.9721
0
LINE
8
BLACK
6
CONTINUOUS
10
90.3413
20
-54.9765
11
103.925
21
-58.3634
0
LINE
8
BLACK
6
CONTINUOUS
10
103.925
20
-58.3634
11
100.539
21
-71.9476
0
LINE
8
BLACK
6
CONTINUOUS
10
100.539
20
-71.9476
11
86.9544
21
-68.5607
0
LINE
8
BLACK
6
CONTINUOUS
10
86.9544
20
-68.5607
11
90.3413
21
-54.9765
0
LINE
8
BLACK
6
CONTINUOUS
10
71.8571
20
-50.3679
11
85.4413
21
-53.7548
0
LINE
8
BLACK
6
CONTINUOUS
10
85.4413
20
-53.7548
11
82.0544
21
-67.3389
0
LINE
8
BLACK
6
CONTINUOUS
10
82.0544
20
-67.3389
11
68.4702
21
-63.952
0
LINE
8
BLACK
6
CONTINUOUS
10
68.4702
20
-63.952
11
71.8571
21
-50.3679
0
LINE
8
BLACK
6
CONTINUOUS
10
53.373
20
-45.7593
11
66.9572
21
-49.1462
0
LINE
8
BLACK
6
CONTINUOUS
10
66.9572
20
-49.1462
11
63.5702
21
-62.7303
0
LINE
8
BLACK
6
CONTINUOUS
10
63.5702
20
-62.7303
11
49.9861
21
-59.3434
0
LINE
8
BLACK
6
CONTINUOUS
10
49.9861
20
-59.3434
11
53.373
21
-45.7593
0
LINE
8
BLACK
6
CONTINUOUS
10
34.8889
20
-41.1507
11
48.473
21
-44.5376
0
LINE
8
BLACK
6
CONTINUOUS
10
48.473
20
-44.5376
11
45.0861
21
-58.1217
0
LINE
8
BLACK
6
CONTINUOUS
10
45.0861
20
-58.1217
11
31.502
21
-54.7348
0
LINE
8
BLACK
6
CONTINUOUS
10
31.502
20
-54.7348
11
34.8889
21
-41.1507
0
LINE
8
BLACK
6
CONTINUOUS
10
221.102
20
-24.9014
11
234.686
21
-21.5145
0
LINE
8
BLACK
6
CONTINUOUS
10
234.686
20
-21.5145
11
238.073
21
-35.0986
0
LINE
8
BLACK
6
CONTINUOUS
10
238.073
20
-35.0986
11
224.489
21
-38.4855
0
LINE
8
BLACK
6
CONTINUOUS
10
224.489
20
-38.4855
11
221.102
21
-24.9014
0
LINE
8
BLACK
6
CONTINUOUS
10
202.618
20
-29.51
11
216.202
21
-26.1231
0
LINE
8
BLACK
6
CONTINUOUS
10
216.202
20
-26.1231
11
219.589
21
-39.7072
0
LINE
8
BLACK
6
CONTINUOUS
10
219.589
20
-39.7072
11
206.005
21
-43.0941
0
LINE
8
BLACK
6
CONTINUOUS
10
206.005
20
-43.0941
11
202.618
21
-29.51
0
LINE
8
BLACK
6
CONTINUOUS
10
147.166
20
-43.3358
11
160.75
21
-39.9489
0
LINE
8
BLACK
6
CONTINUOUS
10
160.75
20
-39.9489
11
164.137
21
-53.5331
0
LINE
8
BLACK
6
CONTINUOUS
10
164.137
20
-53.5331
11
150.553
21
-56.92
0
LINE
8
BLACK
6
CONTINUOUS
10
150.553
20
-56.92
11
147.166
21
-43.3358
0
LINE
8
BLACK
6
CONTINUOUS
10
108.838
20
-39.9489
11
122.422
21
-43.3358
0
LINE
8
BLACK
6
CONTINUOUS
10
122.422
20
-43.3358
11
119.035
21
-56.92
0
LINE
8
BLACK
6
CONTINUOUS
10
119.035
20
-56.92
11
105.451
21
-53.5331
0
LINE
8
BLACK
6
CONTINUOUS
10
105.451
20
-53.5331
11
108.838
21
-39.9489
0
LINE
8
BLACK
6
CONTINUOUS
10
90.3538
20
-35.3403
11
103.938
21
-38.7272
0
LINE
8
BLACK
6
CONTINUOUS
10
103.938
20
-38.7272
11
100.551
21
-52.3114
0
LINE
8
BLACK
6
CONTINUOUS
10
100.551
20
-52.3114
11
86.9669
21
-48.9245
0
LINE
8
BLACK
6
CONTINUOUS
10
86.9669
20
-48.9245
11
90.3538
21
-35.3403
0
LINE
8
BLACK
6
CONTINUOUS
10
71.8696
20
-30.7317
11
85.4538
21
-34.1186
0
LINE
8
BLACK
6
CONTINUOUS
10
85.4538
20
-34.1186
11
82.0669
21
-47.7027
0
LINE
8
BLACK
6
CONTINUOUS
10
82.0669
20
-47.7027
11
68.4827
21
-44.3158
0
LINE
8
BLACK
6
CONTINUOUS
10
68.4827
20
-44.3158
11
71.8696
21
-30.7317
0
LINE
8
BLACK
6
CONTINUOUS
10
53.3855
20
-26.1231
11
66.9697
21
-29.51
0
LINE
8
BLACK
6
CONTINUOUS
10
66.9697
20
-29.51
11
63.5827
21
-43.0941
0
LINE
8
BLACK
6
CONTINUOUS
10
63.5827
20
-43.0941
11
49.9986
21
-39.7072
0
LINE
8
BLACK
6
CONTINUOUS
10
49.9986
20
-39.7072
11
53.3855
21
-26.1231
0
LINE
8
BLACK
6
CONTINUOUS
10
34.9014
20
-21.5145
11
48.4855
21
-24.9014
0
LINE
8
BLACK
6
CONTINUOUS
10
48.4855
20
-24.9014
11
45.0986
21
-38.4855
0
LINE
8
BLACK
6
CONTINUOUS
10
45.0986
20
-38.4855
11
31.5145
21
-35.0986
0
LINE
8
BLACK
6
CONTINUOUS
10
31.5145
20
-35.0986
11
34.9014
21
-21.5145
  0
ENDSEC
  0
EOF
