  0
SECTION
  2
HEADER
  9
$ANGBASE
  50
0.0
  9
$ANGDIR
  70
1
  9
$MEASUREMENT
  70
1
  0
ENDSEC
  0
SECTION
  2
TABLES
  0
TABLE
  2
LTYPE
  70
4
  0
LTYPE
  5
40F
  2
CONTINUOUS
  70
0
  3
Solid line
  72
65
  73
0
  40
0.0
  0
LTYPE
  5
410
  2
DASHDOT
 70
0
  3
Dash Dot ____ _ ____ _
 72
65
 73
4
 40
2.0
 49
1.25
 49
-0.25
 49
0.25
 49
-0.25
  0
LTYPE
  5
411
  2
DASHED
 70
0
  3
Dashed __ __ __ __ __
 72
65
 73
2
 40
0.75
 49
0.5
 49
-0.25
  0
LTYPE
  5
43B
  2
DOTTED
 70
0
  3
Dotted .  .  .  .
 72
65
 73
2
 40
0.2
 49
0.0
 49
-0.2
  0
ENDTAB
  0
TABLE
  2
STYLE
  70
4
  0
STYLE
  2
KICAD
  70
0
  40
0
  41
1
  42
1
  50
0
  71
0
  3
isocp.shx
  0
STYLE
  2
KICADB
  70
0
  40
0
  41
1
  42
1
  50
0
  71
0
  3
isocp.shx
  0
STYLE
  2
KICADI
  70
0
  40
0
  41
1
  42
1
  50
15
  71
0
  3
isocp.shx
  0
STYLE
  2
KICADBI
  70
0
  40
0
  41
1
  42
1
  50
15
  71
0
  3
isocp.shx
  0
ENDTAB
  0
TABLE
  2
LAYER
  70
1
  0
LAYER
  2
BLACK
  70
0
  62
7
  6
CONTINUOUS
  0
ENDTAB
  0
ENDSEC
  0
SECTION
  2
ENTITIES
0
ARC
8
BLACK
10
134.798
20
-4.2418
40
38.404
50
-104.009
51
-75.9824
0
ARC
8
BLACK
10
134.734
20
-33.1216
40
67.5458
50
-103.981
51
-76.0628
0
ARC
8
BLACK
10
151.59
20
-100.923
40
2.31941
50
14.2645
51
104.647
0
ARC
8
BLACK
10
159.766
20
-113.525
40
2.53647
50
-164.015
51
-74.0152
0
ARC
8
BLACK
10
210.312
20
-100.914
40
2.53647
50
-74.0152
51
15.9848
0
ARC
8
BLACK
10
117.856
20
-100.8
40
2.20556
50
75.3236
51
165.324
0
ARC
8
BLACK
10
211.565
20
-85.964
40
2.31941
50
104.265
51
194.647
0
ARC
8
BLACK
10
242.644
20
-53.8011
40
2.31941
50
-165.735
51
-75.3527
0
ARC
8
BLACK
10
239.331
20
-39.7637
40
2.31941
50
104.265
51
194.647
0
ARC
8
BLACK
10
247.294
20
-72.0471
40
2.53647
50
-74.0152
51
15.9848
0
ARC
8
BLACK
10
243.929
20
-58.4835
40
2.53647
50
15.9848
51
105.985
0
ARC
8
BLACK
10
238.062
20
-35.0774
40
2.53647
50
-74.0152
51
15.9848
0
ARC
8
BLACK
10
234.683
20
-21.5138
40
2.53647
50
15.9848
51
105.985
0
ARC
8
BLACK
10
109.791
20
-113.5
40
2.54117
50
-104.175
51
-14.1751
0
ARC
8
BLACK
10
59.2709
20
-100.952
40
2.54117
50
165.825
51
255.825
0
ARC
8
BLACK
10
58.1279
20
-85.8647
40
2.20556
50
-14.6764
51
75.3236
0
ARC
8
BLACK
10
22.2631
20
-72.0471
40
2.54117
50
165.825
51
255.825
0
ARC
8
BLACK
10
25.6413
20
-58.4581
40
2.54117
50
75.8249
51
165.825
0
ARC
8
BLACK
10
26.8224
20
-53.8607
40
2.20556
50
-104.676
51
-14.6764
0
ARC
8
BLACK
10
30.3403
20
-39.6748
40
2.20556
50
-14.6764
51
75.3236
0
ARC
8
BLACK
10
31.5087
20
-35.1028
40
2.51344
50
165.964
51
255.964
0
ARC
8
BLACK
10
34.9123
20
-21.5265
40
2.52577
50
76.0336
51
166.034
0
LINE
8
BLACK
6
CONTINUOUS
10
153.838
20
-100.351
11
157.328
21
-114.224
0
LINE
8
BLACK
6
CONTINUOUS
10
112.255
20
-114.122
11
115.722
21
-100.241
0
LINE
8
BLACK
6
CONTINUOUS
10
32.4739
20
-40.2336
11
28.956
21
-54.4195
0
LINE
8
BLACK
6
CONTINUOUS
10
240.396
20
-54.3726
11
237.087
21
-40.3502
0
LINE
8
BLACK
6
CONTINUOUS
10
246.367
20
-57.785
11
249.733
21
-71.3486
0
LINE
8
BLACK
6
CONTINUOUS
10
29.0703
20
-34.4932
11
32.4612
21
-20.9169
0
LINE
8
BLACK
6
CONTINUOUS
10
19.7993
20
-71.4248
11
23.1775
21
-57.8358
0
LINE
8
BLACK
6
CONTINUOUS
10
58.6867
20
-83.7311
11
21.6408
21
-74.5109
0
LINE
8
BLACK
6
CONTINUOUS
10
56.8071
20
-100.33
11
60.2615
21
-86.4235
0
LINE
8
BLACK
6
CONTINUOUS
10
109.169
20
-115.964
11
58.6486
21
-103.416
0
LINE
8
BLACK
6
CONTINUOUS
10
211.01
20
-103.353
11
160.464
21
-115.964
0
LINE
8
BLACK
6
CONTINUOUS
10
209.321
20
-86.5505
11
212.75
21
-100.216
0
LINE
8
BLACK
6
CONTINUOUS
10
247.993
20
-74.4855
11
210.994
21
-83.7161
0
LINE
8
BLACK
6
CONTINUOUS
10
237.122
20
-20.8153
11
240.5
21
-34.3789
0
LINE
8
BLACK
6
CONTINUOUS
10
144.1
20
-41.5022
11
233.985
21
-19.0754
0
LINE
8
BLACK
6
CONTINUOUS
10
35.5219
20
-19.0754
11
125.501
21
-41.5036
  0
ENDSEC
  0
EOF
