  0
SECTION
  2
BLOCKS
  0
ENDSEC
  0
SECTION
  2
ENTITIES
  0
LINE
  8
0
 10
160.465
 20
-15.9639
 11
211.011
 21
-3.35254
  0
LINE
  8
0
 10
211.011
 20
-3.35254
 11
211.473
 21
-3.16895
  0
LINE
  8
0
 10
211.473
 20
-3.16895
 11
211.891
 21
-2.89941
  0
LINE
  8
0
 10
211.891
 20
-2.89941
 11
212.247
 21
-2.55371
  0
LINE
  8
0
 10
212.247
 20
-2.55371
 11
212.53
 21
-2.14453
  0
LINE
  8
0
 10
212.53
 20
-2.14453
 11
212.728
 21
-1.6875
  0
LINE
  8
0
 10
212.728
 20
-1.6875
 11
212.832
 21
-1.20215
  0
LINE
  8
0
 10
212.832
 20
-1.20215
 11
212.84
 21
-0.705078
  0
LINE
  8
0
 10
212.84
 20
-0.705078
 11
212.75
 21
-0.21582
  0
LINE
  8
0
 10
212.75
 20
-0.21582
 11
209.321
 21
13.4492
  0
LINE
  8
0
 10
209.321
 20
13.4492
 11
209.25
 21
13.9004
  0
LINE
  8
0
 10
209.25
 20
13.9004
 11
209.268
 21
14.3564
  0
LINE
  8
0
 10
209.268
 20
14.3564
 11
209.375
 21
14.8008
  0
LINE
  8
0
 10
209.375
 20
14.8008
 11
209.567
 21
15.2148
  0
LINE
  8
0
 10
209.567
 20
15.2148
 11
209.837
 21
15.583
  0
LINE
  8
0
 10
209.837
 20
15.583
 11
210.174
 21
15.8916
  0
LINE
  8
0
 10
210.174
 20
15.8916
 11
210.564
 21
16.1279
  0
LINE
  8
0
 10
210.564
 20
16.1279
 11
210.993
 21
16.2842
  0
LINE
  8
0
 10
210.993
 20
16.2842
 11
247.992
 21
25.5146
  0
LINE
  8
0
 10
247.992
 20
25.5146
 11
248.455
 21
25.6973
  0
LINE
  8
0
 10
248.455
 20
25.6973
 11
248.872
 21
25.9678
  0
LINE
  8
0
 10
248.872
 20
25.9678
 11
249.229
 21
26.3135
  0
LINE
  8
0
 10
249.229
 20
26.3135
 11
249.512
 21
26.7227
  0
LINE
  8
0
 10
249.512
 20
26.7227
 11
249.71
 21
27.1787
  0
LINE
  8
0
 10
249.71
 20
27.1787
 11
249.814
 21
27.665
  0
LINE
  8
0
 10
249.814
 20
27.665
 11
249.822
 21
28.1621
  0
LINE
  8
0
 10
249.822
 20
28.1621
 11
249.732
 21
28.6514
  0
LINE
  8
0
 10
249.732
 20
28.6514
 11
246.367
 21
42.2148
  0
LINE
  8
0
 10
246.367
 20
42.2148
 11
246.185
 21
42.6777
  0
LINE
  8
0
 10
246.185
 20
42.6777
 11
245.914
 21
43.0947
  0
LINE
  8
0
 10
245.914
 20
43.0947
 11
245.568
 21
43.4521
  0
LINE
  8
0
 10
245.568
 20
43.4521
 11
245.159
 21
43.7344
  0
LINE
  8
0
 10
245.159
 20
43.7344
 11
244.703
 21
43.9316
  0
LINE
  8
0
 10
244.703
 20
43.9316
 11
244.217
 21
44.0361
  0
LINE
  8
0
 10
244.217
 20
44.0361
 11
243.72
 21
44.0439
  0
LINE
  8
0
 10
243.72
 20
44.0439
 11
243.23
 21
43.9551
  0
LINE
  8
0
 10
243.23
 20
43.9551
 11
242.779
 21
43.8838
  0
LINE
  8
0
 10
242.779
 20
43.8838
 11
242.323
 21
43.9014
  0
LINE
  8
0
 10
242.323
 20
43.9014
 11
241.88
 21
44.0088
  0
LINE
  8
0
 10
241.88
 20
44.0088
 11
241.465
 21
44.2012
  0
LINE
  8
0
 10
241.465
 20
44.2012
 11
241.097
 21
44.4707
  0
LINE
  8
0
 10
241.097
 20
44.4707
 11
240.788
 21
44.8076
  0
LINE
  8
0
 10
240.788
 20
44.8076
 11
240.552
 21
45.1982
  0
LINE
  8
0
 10
240.552
 20
45.1982
 11
240.396
 21
45.627
  0
LINE
  8
0
 10
240.396
 20
45.627
 11
237.087
 21
59.6494
  0
LINE
  8
0
 10
237.087
 20
59.6494
 11
237.016
 21
60.1006
  0
LINE
  8
0
 10
237.016
 20
60.1006
 11
237.034
 21
60.5566
  0
LINE
  8
0
 10
237.034
 20
60.5566
 11
237.142
 21
61.001
  0
LINE
  8
0
 10
237.142
 20
61.001
 11
237.333
 21
61.415
  0
LINE
  8
0
 10
237.333
 20
61.415
 11
237.604
 21
61.7832
  0
LINE
  8
0
 10
237.604
 20
61.7832
 11
237.939
 21
62.0918
  0
LINE
  8
0
 10
237.939
 20
62.0918
 11
238.33
 21
62.3291
  0
LINE
  8
0
 10
238.33
 20
62.3291
 11
238.76
 21
62.4844
  0
LINE
  8
0
 10
238.76
 20
62.4844
 11
239.223
 21
62.667
  0
LINE
  8
0
 10
239.223
 20
62.667
 11
239.641
 21
62.9375
  0
LINE
  8
0
 10
239.641
 20
62.9375
 11
239.997
 21
63.2832
  0
LINE
  8
0
 10
239.997
 20
63.2832
 11
240.28
 21
63.6924
  0
LINE
  8
0
 10
240.28
 20
63.6924
 11
240.478
 21
64.1484
  0
LINE
  8
0
 10
240.478
 20
64.1484
 11
240.582
 21
64.6348
  0
LINE
  8
0
 10
240.582
 20
64.6348
 11
240.59
 21
65.1318
  0
LINE
  8
0
 10
240.59
 20
65.1318
 11
240.5
 21
65.6211
  0
LINE
  8
0
 10
240.5
 20
65.6211
 11
237.121
 21
79.1846
  0
LINE
  8
0
 10
237.121
 20
79.1846
 11
236.938
 21
79.6475
  0
LINE
  8
0
 10
236.938
 20
79.6475
 11
236.669
 21
80.0645
  0
LINE
  8
0
 10
236.669
 20
80.0645
 11
236.322
 21
80.4219
  0
LINE
  8
0
 10
236.322
 20
80.4219
 11
235.913
 21
80.7041
  0
LINE
  8
0
 10
235.913
 20
80.7041
 11
235.457
 21
80.9014
  0
LINE
  8
0
 10
235.457
 20
80.9014
 11
234.971
 21
81.0059
  0
LINE
  8
0
 10
234.971
 20
81.0059
 11
234.474
 21
81.0137
  0
LINE
  8
0
 10
234.474
 20
81.0137
 11
233.984
 21
80.9248
  0
LINE
  8
0
 10
233.984
 20
80.9248
 11
144.101
 21
58.498
  0
LINE
  8
0
 10
144.101
 20
58.498
 11
137.929
 21
57.4824
  0
LINE
  8
0
 10
137.929
 20
57.4824
 11
131.674
 21
57.4814
  0
LINE
  8
0
 10
131.674
 20
57.4814
 11
125.501
 21
58.4961
  0
LINE
  8
0
 10
125.501
 20
58.4961
 11
35.5215
 21
80.9248
  0
LINE
  8
0
 10
35.5215
 20
80.9248
 11
35.0322
 21
80.9961
  0
LINE
  8
0
 10
35.0322
 20
80.9961
 11
34.5371
 21
80.9717
  0
LINE
  8
0
 10
34.5371
 20
80.9717
 11
34.0576
 21
80.8506
  0
LINE
  8
0
 10
34.0576
 20
80.8506
 11
33.6104
 21
80.6377
  0
LINE
  8
0
 10
33.6104
 20
80.6377
 11
33.2129
 21
80.3418
  0
LINE
  8
0
 10
33.2129
 20
80.3418
 11
32.8809
 21
79.9746
  0
LINE
  8
0
 10
32.8809
 20
79.9746
 11
32.627
 21
79.5498
  0
LINE
  8
0
 10
32.627
 20
79.5498
 11
32.4609
 21
79.083
  0
LINE
  8
0
 10
32.4609
 20
79.083
 11
29.0703
 21
65.5068
  0
LINE
  8
0
 10
29.0703
 20
65.5068
 11
28.998
 21
65.0195
  0
LINE
  8
0
 10
28.998
 20
65.0195
 11
29.0225
 21
64.5273
  0
LINE
  8
0
 10
29.0225
 20
64.5273
 11
29.1426
 21
64.0498
  0
LINE
  8
0
 10
29.1426
 20
64.0498
 11
29.3535
 21
63.6045
  0
LINE
  8
0
 10
29.3535
 20
63.6045
 11
29.6475
 21
63.208
  0
LINE
  8
0
 10
29.6475
 20
63.208
 11
30.0127
 21
62.8779
  0
LINE
  8
0
 10
30.0127
 20
62.8779
 11
30.4355
 21
62.625
  0
LINE
  8
0
 10
30.4355
 20
62.625
 11
30.8994
 21
62.459
  0
LINE
  8
0
 10
30.8994
 20
62.459
 11
31.3047
 21
62.3086
  0
LINE
  8
0
 10
31.3047
 20
62.3086
 11
31.6729
 21
62.083
  0
LINE
  8
0
 10
31.6729
 20
62.083
 11
31.9902
 21
61.7891
  0
LINE
  8
0
 10
31.9902
 20
61.7891
 11
32.2441
 21
61.4385
  0
LINE
  8
0
 10
32.2441
 20
61.4385
 11
32.4248
 21
61.0459
  0
LINE
  8
0
 10
32.4248
 20
61.0459
 11
32.5254
 21
60.625
  0
LINE
  8
0
 10
32.5254
 20
60.625
 11
32.542
 21
60.1934
  0
LINE
  8
0
 10
32.542
 20
60.1934
 11
32.4736
 21
59.7666
  0
LINE
  8
0
 10
32.4736
 20
59.7666
 11
28.9561
 21
45.5801
  0
LINE
  8
0
 10
28.9561
 20
45.5801
 11
28.8057
 21
45.1748
  0
LINE
  8
0
 10
28.8057
 20
45.1748
 11
28.5801
 21
44.8066
  0
LINE
  8
0
 10
28.5801
 20
44.8066
 11
28.2861
 21
44.4893
  0
LINE
  8
0
 10
28.2861
 20
44.4893
 11
27.9355
 21
44.2354
  0
LINE
  8
0
 10
27.9355
 20
44.2354
 11
27.543
 21
44.0547
  0
LINE
  8
0
 10
27.543
 20
44.0547
 11
27.123
 21
43.9541
  0
LINE
  8
0
 10
27.123
 20
43.9541
 11
26.6904
 21
43.9375
  0
LINE
  8
0
 10
26.6904
 20
43.9375
 11
26.2637
 21
44.0059
  0
LINE
  8
0
 10
26.2637
 20
44.0059
 11
25.7705
 21
44.0801
  0
LINE
  8
0
 10
25.7705
 20
44.0801
 11
25.2734
 21
44.0566
  0
LINE
  8
0
 10
25.2734
 20
44.0566
 11
24.79
 21
43.9365
  0
LINE
  8
0
 10
24.79
 20
43.9365
 11
24.3389
 21
43.7236
  0
LINE
  8
0
 10
24.3389
 20
43.7236
 11
23.9385
 21
43.4277
  0
LINE
  8
0
 10
23.9385
 20
43.4277
 11
23.6035
 21
43.0596
  0
LINE
  8
0
 10
23.6035
 20
43.0596
 11
23.3467
 21
42.6328
  0
LINE
  8
0
 10
23.3467
 20
42.6328
 11
23.1777
 21
42.1641
  0
LINE
  8
0
 10
23.1777
 20
42.1641
 11
19.7988
 21
28.5752
  0
LINE
  8
0
 10
19.7988
 20
28.5752
 11
19.7256
 21
28.083
  0
LINE
  8
0
 10
19.7256
 20
28.083
 11
19.749
 21
27.585
  0
LINE
  8
0
 10
19.749
 20
27.585
 11
19.8691
 21
27.1016
  0
LINE
  8
0
 10
19.8691
 20
27.1016
 11
20.0811
 21
26.6504
  0
LINE
  8
0
 10
20.0811
 20
26.6504
 11
20.377
 21
26.25
  0
LINE
  8
0
 10
20.377
 20
26.25
 11
20.7451
 21
25.915
  0
LINE
  8
0
 10
20.7451
 20
25.915
 11
21.1719
 21
25.6582
  0
LINE
  8
0
 10
21.1719
 20
25.6582
 11
21.6406
 21
25.4893
  0
LINE
  8
0
 10
21.6406
 20
25.4893
 11
58.6865
 21
16.2686
  0
LINE
  8
0
 10
58.6865
 20
16.2686
 11
59.0918
 21
16.1191
  0
LINE
  8
0
 10
59.0918
 20
16.1191
 11
59.4609
 21
15.8926
  0
LINE
  8
0
 10
59.4609
 20
15.8926
 11
59.7783
 21
15.5986
  0
LINE
  8
0
 10
59.7783
 20
15.5986
 11
60.0312
 21
15.249
  0
LINE
  8
0
 10
60.0312
 20
15.249
 11
60.2119
 21
14.8564
  0
LINE
  8
0
 10
60.2119
 20
14.8564
 11
60.3125
 21
14.4355
  0
LINE
  8
0
 10
60.3125
 20
14.4355
 11
60.3291
 21
14.0039
  0
LINE
  8
0
 10
60.3291
 20
14.0039
 11
60.2617
 21
13.5762
  0
LINE
  8
0
 10
60.2617
 20
13.5762
 11
56.8066
 21
-0.330078
  0
LINE
  8
0
 10
56.8066
 20
-0.330078
 11
56.7334
 21
-0.822266
  0
LINE
  8
0
 10
56.7334
 20
-0.822266
 11
56.7568
 21
-1.32031
  0
LINE
  8
0
 10
56.7568
 20
-1.32031
 11
56.877
 21
-1.80371
  0
LINE
  8
0
 10
56.877
 20
-1.80371
 11
57.0889
 21
-2.25391
  0
LINE
  8
0
 10
57.0889
 20
-2.25391
 11
57.3848
 21
-2.65527
  0
LINE
  8
0
 10
57.3848
 20
-2.65527
 11
57.7529
 21
-2.99023
  0
LINE
  8
0
 10
57.7529
 20
-2.99023
 11
58.1797
 21
-3.24707
  0
LINE
  8
0
 10
58.1797
 20
-3.24707
 11
58.6484
 21
-3.41602
  0
LINE
  8
0
 10
58.6484
 20
-3.41602
 11
109.169
 21
-15.9639
  0
LINE
  8
0
 10
109.169
 20
-15.9639
 11
109.661
 21
-16.0381
  0
LINE
  8
0
 10
109.661
 20
-16.0381
 11
110.159
 21
-16.0146
  0
LINE
  8
0
 10
110.159
 20
-16.0146
 11
110.643
 21
-15.8945
  0
LINE
  8
0
 10
110.643
 20
-15.8945
 11
111.093
 21
-15.6826
  0
LINE
  8
0
 10
111.093
 20
-15.6826
 11
111.494
 21
-15.3867
  0
LINE
  8
0
 10
111.494
 20
-15.3867
 11
111.829
 21
-15.0176
  0
LINE
  8
0
 10
111.829
 20
-15.0176
 11
112.086
 21
-14.5908
  0
LINE
  8
0
 10
112.086
 20
-14.5908
 11
112.255
 21
-14.1221
  0
LINE
  8
0
 10
112.255
 20
-14.1221
 11
115.723
 21
-0.241211
  0
LINE
  8
0
 10
115.723
 20
-0.241211
 11
115.872
 21
0.164062
  0
LINE
  8
0
 10
115.872
 20
0.164062
 11
116.099
 21
0.533203
  0
LINE
  8
0
 10
116.099
 20
0.533203
 11
116.393
 21
0.849609
  0
LINE
  8
0
 10
116.393
 20
0.849609
 11
116.742
 21
1.10352
  0
LINE
  8
0
 10
116.742
 20
1.10352
 11
117.136
 21
1.28418
  0
LINE
  8
0
 10
117.136
 20
1.28418
 11
117.556
 21
1.38477
  0
LINE
  8
0
 10
117.556
 20
1.38477
 11
117.988
 21
1.40137
  0
LINE
  8
0
 10
117.988
 20
1.40137
 11
118.415
 21
1.33398
  0
LINE
  8
0
 10
118.415
 20
1.33398
 11
129.229
 21
-0.442383
  0
LINE
  8
0
 10
129.229
 20
-0.442383
 11
140.188
 21
-0.447266
  0
LINE
  8
0
 10
140.188
 20
-0.447266
 11
151.003
 21
1.32129
  0
LINE
  8
0
 10
151.003
 20
1.32129
 11
151.454
 21
1.39258
  0
LINE
  8
0
 10
151.454
 20
1.39258
 11
151.911
 21
1.37402
  0
LINE
  8
0
 10
151.911
 20
1.37402
 11
152.354
 21
1.2666
  0
LINE
  8
0
 10
152.354
 20
1.2666
 11
152.769
 21
1.07422
  0
LINE
  8
0
 10
152.769
 20
1.07422
 11
153.138
 21
0.804688
  0
LINE
  8
0
 10
153.138
 20
0.804688
 11
153.445
 21
0.46875
  0
LINE
  8
0
 10
153.445
 20
0.46875
 11
153.683
 21
0.078125
  0
LINE
  8
0
 10
153.683
 20
0.078125
 11
153.838
 21
-0.351562
  0
LINE
  8
0
 10
153.838
 20
-0.351562
 11
157.327
 21
-14.2236
  0
LINE
  8
0
 10
157.327
 20
-14.2236
 11
157.511
 21
-14.6855
  0
LINE
  8
0
 10
157.511
 20
-14.6855
 11
157.78
 21
-15.1035
  0
LINE
  8
0
 10
157.78
 20
-15.1035
 11
158.127
 21
-15.4609
  0
LINE
  8
0
 10
158.127
 20
-15.4609
 11
158.536
 21
-15.7432
  0
LINE
  8
0
 10
158.536
 20
-15.7432
 11
158.992
 21
-15.9404
  0
LINE
  8
0
 10
158.992
 20
-15.9404
 11
159.479
 21
-16.0449
  0
LINE
  8
0
 10
159.479
 20
-16.0449
 11
159.976
 21
-16.0527
  0
LINE
  8
0
 10
159.976
 20
-16.0527
 11
160.465
 21
-15.9639
  0
LINE
  8
0
 10
222.535
 20
57.3597
 11
222.31
 21
57.4075
  0
LINE
  8
0
 10
222.31
 20
57.4075
 11
222.1
 21
57.5011
  0
LINE
  8
0
 10
222.1
 20
57.5011
 11
221.914
 21
57.6362
  0
LINE
  8
0
 10
221.914
 20
57.6362
 11
221.76
 21
57.8071
  0
LINE
  8
0
 10
221.76
 20
57.8071
 11
221.645
 21
58.0063
  0
LINE
  8
0
 10
221.645
 20
58.0063
 11
221.574
 21
58.225
  0
LINE
  8
0
 10
221.574
 20
58.225
 11
221.55
 21
58.4537
  0
LINE
  8
0
 10
221.55
 20
58.4537
 11
221.574
 21
58.6824
  0
LINE
  8
0
 10
221.574
 20
58.6824
 11
221.645
 21
58.9011
  0
LINE
  8
0
 10
221.645
 20
58.9011
 11
221.76
 21
59.1003
  0
LINE
  8
0
 10
221.76
 20
59.1003
 11
221.914
 21
59.2712
  0
LINE
  8
0
 10
221.914
 20
59.2712
 11
222.1
 21
59.4063
  0
LINE
  8
0
 10
222.1
 20
59.4063
 11
222.31
 21
59.4999
  0
LINE
  8
0
 10
222.31
 20
59.4999
 11
222.535
 21
59.5477
  0
LINE
  8
0
 10
222.535
 20
59.5477
 11
222.765
 21
59.5477
  0
LINE
  8
0
 10
222.765
 20
59.5477
 11
222.99
 21
59.4999
  0
LINE
  8
0
 10
222.99
 20
59.4999
 11
223.2
 21
59.4063
  0
LINE
  8
0
 10
223.2
 20
59.4063
 11
223.386
 21
59.2712
  0
LINE
  8
0
 10
223.386
 20
59.2712
 11
223.54
 21
59.1003
  0
LINE
  8
0
 10
223.54
 20
59.1003
 11
223.655
 21
58.9011
  0
LINE
  8
0
 10
223.655
 20
58.9011
 11
223.726
 21
58.6824
  0
LINE
  8
0
 10
223.726
 20
58.6824
 11
223.75
 21
58.4537
  0
LINE
  8
0
 10
223.75
 20
58.4537
 11
223.726
 21
58.225
  0
LINE
  8
0
 10
223.726
 20
58.225
 11
223.655
 21
58.0063
  0
LINE
  8
0
 10
223.655
 20
58.0063
 11
223.54
 21
57.8071
  0
LINE
  8
0
 10
223.54
 20
57.8071
 11
223.386
 21
57.6362
  0
LINE
  8
0
 10
223.386
 20
57.6362
 11
223.2
 21
57.5011
  0
LINE
  8
0
 10
223.2
 20
57.5011
 11
222.99
 21
57.4075
  0
LINE
  8
0
 10
222.99
 20
57.4075
 11
222.765
 21
57.3597
  0
LINE
  8
0
 10
222.765
 20
57.3597
 11
222.535
 21
57.3597
  0
LINE
  8
0
 10
51.4437
 20
56.2075
 11
51.2188
 21
56.2553
  0
LINE
  8
0
 10
51.2188
 20
56.2553
 11
51.0087
 21
56.3489
  0
LINE
  8
0
 10
51.0087
 20
56.3489
 11
50.8226
 21
56.4841
  0
LINE
  8
0
 10
50.8226
 20
56.4841
 11
50.6688
 21
56.6549
  0
LINE
  8
0
 10
50.6688
 20
56.6549
 11
50.5538
 21
56.8541
  0
LINE
  8
0
 10
50.5538
 20
56.8541
 11
50.4827
 21
57.0728
  0
LINE
  8
0
 10
50.4827
 20
57.0728
 11
50.4587
 21
57.3015
  0
LINE
  8
0
 10
50.4587
 20
57.3015
 11
50.4827
 21
57.5302
  0
LINE
  8
0
 10
50.4827
 20
57.5302
 11
50.5538
 21
57.7489
  0
LINE
  8
0
 10
50.5538
 20
57.7489
 11
50.6688
 21
57.9481
  0
LINE
  8
0
 10
50.6688
 20
57.9481
 11
50.8226
 21
58.119
  0
LINE
  8
0
 10
50.8226
 20
58.119
 11
51.0087
 21
58.2541
  0
LINE
  8
0
 10
51.0087
 20
58.2541
 11
51.2188
 21
58.3477
  0
LINE
  8
0
 10
51.2188
 20
58.3477
 11
51.4437
 21
58.3955
  0
LINE
  8
0
 10
51.4437
 20
58.3955
 11
51.6737
 21
58.3955
  0
LINE
  8
0
 10
51.6737
 20
58.3955
 11
51.8986
 21
58.3477
  0
LINE
  8
0
 10
51.8986
 20
58.3477
 11
52.1087
 21
58.2541
  0
LINE
  8
0
 10
52.1087
 20
58.2541
 11
52.2947
 21
58.119
  0
LINE
  8
0
 10
52.2947
 20
58.119
 11
52.4486
 21
57.9481
  0
LINE
  8
0
 10
52.4486
 20
57.9481
 11
52.5636
 21
57.7489
  0
LINE
  8
0
 10
52.5636
 20
57.7489
 11
52.6347
 21
57.5302
  0
LINE
  8
0
 10
52.6347
 20
57.5302
 11
52.6587
 21
57.3015
  0
LINE
  8
0
 10
52.6587
 20
57.3015
 11
52.6347
 21
57.0728
  0
LINE
  8
0
 10
52.6347
 20
57.0728
 11
52.5636
 21
56.8541
  0
LINE
  8
0
 10
52.5636
 20
56.8541
 11
52.4486
 21
56.6549
  0
LINE
  8
0
 10
52.4486
 20
56.6549
 11
52.2947
 21
56.4841
  0
LINE
  8
0
 10
52.2947
 20
56.4841
 11
52.1087
 21
56.3489
  0
LINE
  8
0
 10
52.1087
 20
56.3489
 11
51.8986
 21
56.2553
  0
LINE
  8
0
 10
51.8986
 20
56.2553
 11
51.6737
 21
56.2075
  0
LINE
  8
0
 10
51.6737
 20
56.2075
 11
51.4437
 21
56.2075
  0
LINE
  8
0
 10
102.275
 20
43.5338
 11
102.05
 21
43.5816
  0
LINE
  8
0
 10
102.05
 20
43.5816
 11
101.84
 21
43.6752
  0
LINE
  8
0
 10
101.84
 20
43.6752
 11
101.654
 21
43.8103
  0
LINE
  8
0
 10
101.654
 20
43.8103
 11
101.5
 21
43.9812
  0
LINE
  8
0
 10
101.5
 20
43.9812
 11
101.385
 21
44.1804
  0
LINE
  8
0
 10
101.385
 20
44.1804
 11
101.314
 21
44.3991
  0
LINE
  8
0
 10
101.314
 20
44.3991
 11
101.29
 21
44.6278
  0
LINE
  8
0
 10
101.29
 20
44.6278
 11
101.314
 21
44.8565
  0
LINE
  8
0
 10
101.314
 20
44.8565
 11
101.385
 21
45.0752
  0
LINE
  8
0
 10
101.385
 20
45.0752
 11
101.5
 21
45.2744
  0
LINE
  8
0
 10
101.5
 20
45.2744
 11
101.654
 21
45.4453
  0
LINE
  8
0
 10
101.654
 20
45.4453
 11
101.84
 21
45.5804
  0
LINE
  8
0
 10
101.84
 20
45.5804
 11
102.05
 21
45.674
  0
LINE
  8
0
 10
102.05
 20
45.674
 11
102.275
 21
45.7218
  0
LINE
  8
0
 10
102.275
 20
45.7218
 11
102.505
 21
45.7218
  0
LINE
  8
0
 10
102.505
 20
45.7218
 11
102.73
 21
45.674
  0
LINE
  8
0
 10
102.73
 20
45.674
 11
102.94
 21
45.5804
  0
LINE
  8
0
 10
102.94
 20
45.5804
 11
103.126
 21
45.4453
  0
LINE
  8
0
 10
103.126
 20
45.4453
 11
103.28
 21
45.2744
  0
LINE
  8
0
 10
103.28
 20
45.2744
 11
103.395
 21
45.0752
  0
LINE
  8
0
 10
103.395
 20
45.0752
 11
103.466
 21
44.8565
  0
LINE
  8
0
 10
103.466
 20
44.8565
 11
103.49
 21
44.6278
  0
LINE
  8
0
 10
103.49
 20
44.6278
 11
103.466
 21
44.3991
  0
LINE
  8
0
 10
103.466
 20
44.3991
 11
103.395
 21
44.1804
  0
LINE
  8
0
 10
103.395
 20
44.1804
 11
103.28
 21
43.9812
  0
LINE
  8
0
 10
103.28
 20
43.9812
 11
103.126
 21
43.8103
  0
LINE
  8
0
 10
103.126
 20
43.8103
 11
102.94
 21
43.6752
  0
LINE
  8
0
 10
102.94
 20
43.6752
 11
102.73
 21
43.5816
  0
LINE
  8
0
 10
102.73
 20
43.5816
 11
102.505
 21
43.5338
  0
LINE
  8
0
 10
102.505
 20
43.5338
 11
102.275
 21
43.5338
  0
LINE
  8
0
 10
167.083
 20
43.5338
 11
166.858
 21
43.5816
  0
LINE
  8
0
 10
166.858
 20
43.5816
 11
166.647
 21
43.6752
  0
LINE
  8
0
 10
166.647
 20
43.6752
 11
166.461
 21
43.8103
  0
LINE
  8
0
 10
166.461
 20
43.8103
 11
166.308
 21
43.9812
  0
LINE
  8
0
 10
166.308
 20
43.9812
 11
166.193
 21
44.1804
  0
LINE
  8
0
 10
166.193
 20
44.1804
 11
166.122
 21
44.3991
  0
LINE
  8
0
 10
166.122
 20
44.3991
 11
166.097
 21
44.6278
  0
LINE
  8
0
 10
166.097
 20
44.6278
 11
166.122
 21
44.8565
  0
LINE
  8
0
 10
166.122
 20
44.8565
 11
166.193
 21
45.0752
  0
LINE
  8
0
 10
166.193
 20
45.0752
 11
166.308
 21
45.2744
  0
LINE
  8
0
 10
166.308
 20
45.2744
 11
166.461
 21
45.4453
  0
LINE
  8
0
 10
166.461
 20
45.4453
 11
166.647
 21
45.5804
  0
LINE
  8
0
 10
166.647
 20
45.5804
 11
166.858
 21
45.674
  0
LINE
  8
0
 10
166.858
 20
45.674
 11
167.083
 21
45.7218
  0
LINE
  8
0
 10
167.083
 20
45.7218
 11
167.312
 21
45.7218
  0
LINE
  8
0
 10
167.312
 20
45.7218
 11
167.537
 21
45.674
  0
LINE
  8
0
 10
167.537
 20
45.674
 11
167.747
 21
45.5804
  0
LINE
  8
0
 10
167.747
 20
45.5804
 11
167.934
 21
45.4453
  0
LINE
  8
0
 10
167.934
 20
45.4453
 11
168.087
 21
45.2744
  0
LINE
  8
0
 10
168.087
 20
45.2744
 11
168.202
 21
45.0752
  0
LINE
  8
0
 10
168.202
 20
45.0752
 11
168.273
 21
44.8565
  0
LINE
  8
0
 10
168.273
 20
44.8565
 11
168.297
 21
44.6278
  0
LINE
  8
0
 10
168.297
 20
44.6278
 11
168.273
 21
44.3991
  0
LINE
  8
0
 10
168.273
 20
44.3991
 11
168.202
 21
44.1804
  0
LINE
  8
0
 10
168.202
 20
44.1804
 11
168.087
 21
43.9812
  0
LINE
  8
0
 10
168.087
 20
43.9812
 11
167.934
 21
43.8103
  0
LINE
  8
0
 10
167.934
 20
43.8103
 11
167.747
 21
43.6752
  0
LINE
  8
0
 10
167.747
 20
43.6752
 11
167.537
 21
43.5816
  0
LINE
  8
0
 10
167.537
 20
43.5816
 11
167.312
 21
43.5338
  0
LINE
  8
0
 10
167.312
 20
43.5338
 11
167.083
 21
43.5338
  0
LINE
  8
0
 10
46.8102
 20
37.7235
 11
46.5853
 21
37.7713
  0
LINE
  8
0
 10
46.5853
 20
37.7713
 11
46.3752
 21
37.8649
  0
LINE
  8
0
 10
46.3752
 20
37.8649
 11
46.1891
 21
38
  0
LINE
  8
0
 10
46.1891
 20
38
 11
46.0353
 21
38.1709
  0
LINE
  8
0
 10
46.0353
 20
38.1709
 11
45.9203
 21
38.3701
  0
LINE
  8
0
 10
45.9203
 20
38.3701
 11
45.8492
 21
38.5888
  0
LINE
  8
0
 10
45.8492
 20
38.5888
 11
45.8252
 21
38.8175
  0
LINE
  8
0
 10
45.8252
 20
38.8175
 11
45.8492
 21
39.0462
  0
LINE
  8
0
 10
45.8492
 20
39.0462
 11
45.9203
 21
39.2649
  0
LINE
  8
0
 10
45.9203
 20
39.2649
 11
46.0353
 21
39.4641
  0
LINE
  8
0
 10
46.0353
 20
39.4641
 11
46.1891
 21
39.635
  0
LINE
  8
0
 10
46.1891
 20
39.635
 11
46.3752
 21
39.7701
  0
LINE
  8
0
 10
46.3752
 20
39.7701
 11
46.5853
 21
39.8637
  0
LINE
  8
0
 10
46.5853
 20
39.8637
 11
46.8102
 21
39.9115
  0
LINE
  8
0
 10
46.8102
 20
39.9115
 11
47.0402
 21
39.9115
  0
LINE
  8
0
 10
47.0402
 20
39.9115
 11
47.2651
 21
39.8637
  0
LINE
  8
0
 10
47.2651
 20
39.8637
 11
47.4752
 21
39.7701
  0
LINE
  8
0
 10
47.4752
 20
39.7701
 11
47.6612
 21
39.635
  0
LINE
  8
0
 10
47.6612
 20
39.635
 11
47.8151
 21
39.4641
  0
LINE
  8
0
 10
47.8151
 20
39.4641
 11
47.9301
 21
39.2649
  0
LINE
  8
0
 10
47.9301
 20
39.2649
 11
48.0012
 21
39.0462
  0
LINE
  8
0
 10
48.0012
 20
39.0462
 11
48.0252
 21
38.8175
  0
LINE
  8
0
 10
48.0252
 20
38.8175
 11
48.0012
 21
38.5888
  0
LINE
  8
0
 10
48.0012
 20
38.5888
 11
47.9301
 21
38.3701
  0
LINE
  8
0
 10
47.9301
 20
38.3701
 11
47.8151
 21
38.1709
  0
LINE
  8
0
 10
47.8151
 20
38.1709
 11
47.6612
 21
38
  0
LINE
  8
0
 10
47.6612
 20
38
 11
47.4752
 21
37.8649
  0
LINE
  8
0
 10
47.4752
 20
37.8649
 11
47.2651
 21
37.7713
  0
LINE
  8
0
 10
47.2651
 20
37.7713
 11
47.0402
 21
37.7235
  0
LINE
  8
0
 10
47.0402
 20
37.7235
 11
46.8102
 21
37.7235
  0
LINE
  8
0
 10
222.522
 20
37.7234
 11
222.297
 21
37.7712
  0
LINE
  8
0
 10
222.297
 20
37.7712
 11
222.087
 21
37.8648
  0
LINE
  8
0
 10
222.087
 20
37.8648
 11
221.901
 21
38
  0
LINE
  8
0
 10
221.901
 20
38
 11
221.747
 21
38.1708
  0
LINE
  8
0
 10
221.747
 20
38.1708
 11
221.632
 21
38.37
  0
LINE
  8
0
 10
221.632
 20
38.37
 11
221.561
 21
38.5887
  0
LINE
  8
0
 10
221.561
 20
38.5887
 11
221.537
 21
38.8174
  0
LINE
  8
0
 10
221.537
 20
38.8174
 11
221.561
 21
39.0461
  0
LINE
  8
0
 10
221.561
 20
39.0461
 11
221.632
 21
39.2648
  0
LINE
  8
0
 10
221.632
 20
39.2648
 11
221.747
 21
39.464
  0
LINE
  8
0
 10
221.747
 20
39.464
 11
221.901
 21
39.6349
  0
LINE
  8
0
 10
221.901
 20
39.6349
 11
222.087
 21
39.77
  0
LINE
  8
0
 10
222.087
 20
39.77
 11
222.297
 21
39.8636
  0
LINE
  8
0
 10
222.297
 20
39.8636
 11
222.522
 21
39.9114
  0
LINE
  8
0
 10
222.522
 20
39.9114
 11
222.752
 21
39.9114
  0
LINE
  8
0
 10
222.752
 20
39.9114
 11
222.977
 21
39.8636
  0
LINE
  8
0
 10
222.977
 20
39.8636
 11
223.187
 21
39.77
  0
LINE
  8
0
 10
223.187
 20
39.77
 11
223.373
 21
39.6349
  0
LINE
  8
0
 10
223.373
 20
39.6349
 11
223.527
 21
39.464
  0
LINE
  8
0
 10
223.527
 20
39.464
 11
223.642
 21
39.2648
  0
LINE
  8
0
 10
223.642
 20
39.2648
 11
223.713
 21
39.0461
  0
LINE
  8
0
 10
223.713
 20
39.0461
 11
223.737
 21
38.8174
  0
LINE
  8
0
 10
223.737
 20
38.8174
 11
223.713
 21
38.5887
  0
LINE
  8
0
 10
223.713
 20
38.5887
 11
223.642
 21
38.37
  0
LINE
  8
0
 10
223.642
 20
38.37
 11
223.527
 21
38.1708
  0
LINE
  8
0
 10
223.527
 20
38.1708
 11
223.373
 21
38
  0
LINE
  8
0
 10
223.373
 20
38
 11
223.187
 21
37.8648
  0
LINE
  8
0
 10
223.187
 20
37.8648
 11
222.977
 21
37.7712
  0
LINE
  8
0
 10
222.977
 20
37.7712
 11
222.752
 21
37.7234
  0
LINE
  8
0
 10
222.752
 20
37.7234
 11
222.522
 21
37.7234
  0
LINE
  8
0
 10
97.6416
 20
25.0498
 11
97.4167
 21
25.0976
  0
LINE
  8
0
 10
97.4167
 20
25.0976
 11
97.2066
 21
25.1912
  0
LINE
  8
0
 10
97.2066
 20
25.1912
 11
97.0206
 21
25.3264
  0
LINE
  8
0
 10
97.0206
 20
25.3264
 11
96.8667
 21
25.4972
  0
LINE
  8
0
 10
96.8667
 20
25.4972
 11
96.7517
 21
25.6964
  0
LINE
  8
0
 10
96.7517
 20
25.6964
 11
96.6806
 21
25.9151
  0
LINE
  8
0
 10
96.6806
 20
25.9151
 11
96.6566
 21
26.1438
  0
LINE
  8
0
 10
96.6566
 20
26.1438
 11
96.6806
 21
26.3725
  0
LINE
  8
0
 10
96.6806
 20
26.3725
 11
96.7517
 21
26.5912
  0
LINE
  8
0
 10
96.7517
 20
26.5912
 11
96.8667
 21
26.7904
  0
LINE
  8
0
 10
96.8667
 20
26.7904
 11
97.0206
 21
26.9613
  0
LINE
  8
0
 10
97.0206
 20
26.9613
 11
97.2066
 21
27.0964
  0
LINE
  8
0
 10
97.2066
 20
27.0964
 11
97.4167
 21
27.19
  0
LINE
  8
0
 10
97.4167
 20
27.19
 11
97.6416
 21
27.2378
  0
LINE
  8
0
 10
97.6416
 20
27.2378
 11
97.8716
 21
27.2378
  0
LINE
  8
0
 10
97.8716
 20
27.2378
 11
98.0965
 21
27.19
  0
LINE
  8
0
 10
98.0965
 20
27.19
 11
98.3066
 21
27.0964
  0
LINE
  8
0
 10
98.3066
 20
27.0964
 11
98.4926
 21
26.9613
  0
LINE
  8
0
 10
98.4926
 20
26.9613
 11
98.6465
 21
26.7904
  0
LINE
  8
0
 10
98.6465
 20
26.7904
 11
98.7615
 21
26.5912
  0
LINE
  8
0
 10
98.7615
 20
26.5912
 11
98.8326
 21
26.3725
  0
LINE
  8
0
 10
98.8326
 20
26.3725
 11
98.8566
 21
26.1438
  0
LINE
  8
0
 10
98.8566
 20
26.1438
 11
98.8326
 21
25.9151
  0
LINE
  8
0
 10
98.8326
 20
25.9151
 11
98.7615
 21
25.6964
  0
LINE
  8
0
 10
98.7615
 20
25.6964
 11
98.6465
 21
25.4972
  0
LINE
  8
0
 10
98.6465
 20
25.4972
 11
98.4926
 21
25.3264
  0
LINE
  8
0
 10
98.4926
 20
25.3264
 11
98.3066
 21
25.1912
  0
LINE
  8
0
 10
98.3066
 20
25.1912
 11
98.0965
 21
25.0976
  0
LINE
  8
0
 10
98.0965
 20
25.0976
 11
97.8716
 21
25.0498
  0
LINE
  8
0
 10
97.8716
 20
25.0498
 11
97.6416
 21
25.0498
  0
LINE
  8
0
 10
171.691
 20
25.0497
 11
171.466
 21
25.0975
  0
LINE
  8
0
 10
171.466
 20
25.0975
 11
171.256
 21
25.1911
  0
LINE
  8
0
 10
171.256
 20
25.1911
 11
171.07
 21
25.3262
  0
LINE
  8
0
 10
171.07
 20
25.3262
 11
170.916
 21
25.4971
  0
LINE
  8
0
 10
170.916
 20
25.4971
 11
170.801
 21
25.6963
  0
LINE
  8
0
 10
170.801
 20
25.6963
 11
170.73
 21
25.915
  0
LINE
  8
0
 10
170.73
 20
25.915
 11
170.706
 21
26.1437
  0
LINE
  8
0
 10
170.706
 20
26.1437
 11
170.73
 21
26.3724
  0
LINE
  8
0
 10
170.73
 20
26.3724
 11
170.801
 21
26.5911
  0
LINE
  8
0
 10
170.801
 20
26.5911
 11
170.916
 21
26.7903
  0
LINE
  8
0
 10
170.916
 20
26.7903
 11
171.07
 21
26.9612
  0
LINE
  8
0
 10
171.07
 20
26.9612
 11
171.256
 21
27.0963
  0
LINE
  8
0
 10
171.256
 20
27.0963
 11
171.466
 21
27.1899
  0
LINE
  8
0
 10
171.466
 20
27.1899
 11
171.691
 21
27.2377
  0
LINE
  8
0
 10
171.691
 20
27.2377
 11
171.921
 21
27.2377
  0
LINE
  8
0
 10
171.921
 20
27.2377
 11
172.146
 21
27.1899
  0
LINE
  8
0
 10
172.146
 20
27.1899
 11
172.356
 21
27.0963
  0
LINE
  8
0
 10
172.356
 20
27.0963
 11
172.542
 21
26.9612
  0
LINE
  8
0
 10
172.542
 20
26.9612
 11
172.696
 21
26.7903
  0
LINE
  8
0
 10
172.696
 20
26.7903
 11
172.811
 21
26.5911
  0
LINE
  8
0
 10
172.811
 20
26.5911
 11
172.882
 21
26.3724
  0
LINE
  8
0
 10
172.882
 20
26.3724
 11
172.906
 21
26.1437
  0
LINE
  8
0
 10
172.906
 20
26.1437
 11
172.882
 21
25.915
  0
LINE
  8
0
 10
172.882
 20
25.915
 11
172.811
 21
25.6963
  0
LINE
  8
0
 10
172.811
 20
25.6963
 11
172.696
 21
25.4971
  0
LINE
  8
0
 10
172.696
 20
25.4971
 11
172.542
 21
25.3262
  0
LINE
  8
0
 10
172.542
 20
25.3262
 11
172.356
 21
25.1911
  0
LINE
  8
0
 10
172.356
 20
25.1911
 11
172.146
 21
25.0975
  0
LINE
  8
0
 10
172.146
 20
25.0975
 11
171.921
 21
25.0497
  0
LINE
  8
0
 10
171.921
 20
25.0497
 11
171.691
 21
25.0497
  0
LINE
  8
0
 10
79.1698
 20
10.0222
 11
78.9449
 21
10.07
  0
LINE
  8
0
 10
78.9449
 20
10.07
 11
78.7348
 21
10.1636
  0
LINE
  8
0
 10
78.7348
 20
10.1636
 11
78.5488
 21
10.2988
  0
LINE
  8
0
 10
78.5488
 20
10.2988
 11
78.3949
 21
10.4697
  0
LINE
  8
0
 10
78.3949
 20
10.4697
 11
78.2799
 21
10.6688
  0
LINE
  8
0
 10
78.2799
 20
10.6688
 11
78.2088
 21
10.8875
  0
LINE
  8
0
 10
78.2088
 20
10.8875
 11
78.1848
 21
11.1162
  0
LINE
  8
0
 10
78.1848
 20
11.1162
 11
78.2088
 21
11.3449
  0
LINE
  8
0
 10
78.2088
 20
11.3449
 11
78.2799
 21
11.5636
  0
LINE
  8
0
 10
78.2799
 20
11.5636
 11
78.3949
 21
11.7628
  0
LINE
  8
0
 10
78.3949
 20
11.7628
 11
78.5488
 21
11.9337
  0
LINE
  8
0
 10
78.5488
 20
11.9337
 11
78.7348
 21
12.0688
  0
LINE
  8
0
 10
78.7348
 20
12.0688
 11
78.9449
 21
12.1624
  0
LINE
  8
0
 10
78.9449
 20
12.1624
 11
79.1698
 21
12.2102
  0
LINE
  8
0
 10
79.1698
 20
12.2102
 11
79.3998
 21
12.2102
  0
LINE
  8
0
 10
79.3998
 20
12.2102
 11
79.6247
 21
12.1624
  0
LINE
  8
0
 10
79.6247
 20
12.1624
 11
79.8348
 21
12.0688
  0
LINE
  8
0
 10
79.8348
 20
12.0688
 11
80.0208
 21
11.9337
  0
LINE
  8
0
 10
80.0208
 20
11.9337
 11
80.1747
 21
11.7628
  0
LINE
  8
0
 10
80.1747
 20
11.7628
 11
80.2897
 21
11.5636
  0
LINE
  8
0
 10
80.2897
 20
11.5636
 11
80.3607
 21
11.3449
  0
LINE
  8
0
 10
80.3607
 20
11.3449
 11
80.3848
 21
11.1162
  0
LINE
  8
0
 10
80.3848
 20
11.1162
 11
80.3607
 21
10.8875
  0
LINE
  8
0
 10
80.3607
 20
10.8875
 11
80.2897
 21
10.6688
  0
LINE
  8
0
 10
80.2897
 20
10.6688
 11
80.1747
 21
10.4697
  0
LINE
  8
0
 10
80.1747
 20
10.4697
 11
80.0208
 21
10.2988
  0
LINE
  8
0
 10
80.0208
 20
10.2988
 11
79.8348
 21
10.1636
  0
LINE
  8
0
 10
79.8348
 20
10.1636
 11
79.6247
 21
10.07
  0
LINE
  8
0
 10
79.6247
 20
10.07
 11
79.3998
 21
10.0222
  0
LINE
  8
0
 10
79.3998
 20
10.0222
 11
79.1698
 21
10.0222
  0
LINE
  8
0
 10
190.163
 20
10.0221
 11
189.938
 21
10.0699
  0
LINE
  8
0
 10
189.938
 20
10.0699
 11
189.728
 21
10.1635
  0
LINE
  8
0
 10
189.728
 20
10.1635
 11
189.542
 21
10.2986
  0
LINE
  8
0
 10
189.542
 20
10.2986
 11
189.388
 21
10.4695
  0
LINE
  8
0
 10
189.388
 20
10.4695
 11
189.273
 21
10.6687
  0
LINE
  8
0
 10
189.273
 20
10.6687
 11
189.202
 21
10.8874
  0
LINE
  8
0
 10
189.202
 20
10.8874
 11
189.178
 21
11.1161
  0
LINE
  8
0
 10
189.178
 20
11.1161
 11
189.202
 21
11.3448
  0
LINE
  8
0
 10
189.202
 20
11.3448
 11
189.273
 21
11.5635
  0
LINE
  8
0
 10
189.273
 20
11.5635
 11
189.388
 21
11.7627
  0
LINE
  8
0
 10
189.388
 20
11.7627
 11
189.542
 21
11.9336
  0
LINE
  8
0
 10
189.542
 20
11.9336
 11
189.728
 21
12.0687
  0
LINE
  8
0
 10
189.728
 20
12.0687
 11
189.938
 21
12.1623
  0
LINE
  8
0
 10
189.938
 20
12.1623
 11
190.163
 21
12.2101
  0
LINE
  8
0
 10
190.163
 20
12.2101
 11
190.393
 21
12.2101
  0
LINE
  8
0
 10
190.393
 20
12.2101
 11
190.618
 21
12.1623
  0
LINE
  8
0
 10
190.618
 20
12.1623
 11
190.828
 21
12.0687
  0
LINE
  8
0
 10
190.828
 20
12.0687
 11
191.014
 21
11.9336
  0
LINE
  8
0
 10
191.014
 20
11.9336
 11
191.168
 21
11.7627
  0
LINE
  8
0
 10
191.168
 20
11.7627
 11
191.283
 21
11.5635
  0
LINE
  8
0
 10
191.283
 20
11.5635
 11
191.354
 21
11.3448
  0
LINE
  8
0
 10
191.354
 20
11.3448
 11
191.378
 21
11.1161
  0
LINE
  8
0
 10
191.378
 20
11.1161
 11
191.354
 21
10.8874
  0
LINE
  8
0
 10
191.354
 20
10.8874
 11
191.283
 21
10.6687
  0
LINE
  8
0
 10
191.283
 20
10.6687
 11
191.168
 21
10.4695
  0
LINE
  8
0
 10
191.168
 20
10.4695
 11
191.014
 21
10.2986
  0
LINE
  8
0
 10
191.014
 20
10.2986
 11
190.828
 21
10.1635
  0
LINE
  8
0
 10
190.828
 20
10.1635
 11
190.618
 21
10.0699
  0
LINE
  8
0
 10
190.618
 20
10.0699
 11
190.393
 21
10.0221
  0
LINE
  8
0
 10
190.393
 20
10.0221
 11
190.163
 21
10.0221
  0
ENDSEC
  0
SECTION
  2
OBJECTS
  0
DICTIONARY
  0
ENDSEC
  0
EOF
