  0
SECTION
  2
BLOCKS
  0
ENDSEC
  0
SECTION
  2
ENTITIES
  0
LINE
  8
0
 10
160.465
 20
-115.964
 11
211.011
 21
-103.353
  0
LINE
  8
0
 10
211.011
 20
-103.353
 11
211.473
 21
-103.169
  0
LINE
  8
0
 10
211.473
 20
-103.169
 11
211.891
 21
-102.899
  0
LINE
  8
0
 10
211.891
 20
-102.899
 11
212.247
 21
-102.554
  0
LINE
  8
0
 10
212.247
 20
-102.554
 11
212.53
 21
-102.145
  0
LINE
  8
0
 10
212.53
 20
-102.145
 11
212.728
 21
-101.688
  0
LINE
  8
0
 10
212.728
 20
-101.688
 11
212.832
 21
-101.202
  0
LINE
  8
0
 10
212.832
 20
-101.202
 11
212.84
 21
-100.705
  0
LINE
  8
0
 10
212.84
 20
-100.705
 11
212.75
 21
-100.216
  0
LINE
  8
0
 10
212.75
 20
-100.216
 11
209.321
 21
-86.5508
  0
LINE
  8
0
 10
209.321
 20
-86.5508
 11
209.25
 21
-86.0996
  0
LINE
  8
0
 10
209.25
 20
-86.0996
 11
209.268
 21
-85.6436
  0
LINE
  8
0
 10
209.268
 20
-85.6436
 11
209.375
 21
-85.1992
  0
LINE
  8
0
 10
209.375
 20
-85.1992
 11
209.567
 21
-84.7852
  0
LINE
  8
0
 10
209.567
 20
-84.7852
 11
209.837
 21
-84.417
  0
LINE
  8
0
 10
209.837
 20
-84.417
 11
210.174
 21
-84.1084
  0
LINE
  8
0
 10
210.174
 20
-84.1084
 11
210.564
 21
-83.8721
  0
LINE
  8
0
 10
210.564
 20
-83.8721
 11
210.993
 21
-83.7158
  0
LINE
  8
0
 10
210.993
 20
-83.7158
 11
247.992
 21
-74.4854
  0
LINE
  8
0
 10
247.992
 20
-74.4854
 11
248.455
 21
-74.3027
  0
LINE
  8
0
 10
248.455
 20
-74.3027
 11
248.872
 21
-74.0322
  0
LINE
  8
0
 10
248.872
 20
-74.0322
 11
249.229
 21
-73.6865
  0
LINE
  8
0
 10
249.229
 20
-73.6865
 11
249.512
 21
-73.2773
  0
LINE
  8
0
 10
249.512
 20
-73.2773
 11
249.71
 21
-72.8213
  0
LINE
  8
0
 10
249.71
 20
-72.8213
 11
249.814
 21
-72.335
  0
LINE
  8
0
 10
249.814
 20
-72.335
 11
249.822
 21
-71.8379
  0
LINE
  8
0
 10
249.822
 20
-71.8379
 11
249.732
 21
-71.3486
  0
LINE
  8
0
 10
249.732
 20
-71.3486
 11
246.367
 21
-57.7852
  0
LINE
  8
0
 10
246.367
 20
-57.7852
 11
246.185
 21
-57.3223
  0
LINE
  8
0
 10
246.185
 20
-57.3223
 11
245.914
 21
-56.9053
  0
LINE
  8
0
 10
245.914
 20
-56.9053
 11
245.568
 21
-56.5479
  0
LINE
  8
0
 10
245.568
 20
-56.5479
 11
245.159
 21
-56.2656
  0
LINE
  8
0
 10
245.159
 20
-56.2656
 11
244.703
 21
-56.0684
  0
LINE
  8
0
 10
244.703
 20
-56.0684
 11
244.217
 21
-55.9639
  0
LINE
  8
0
 10
244.217
 20
-55.9639
 11
243.72
 21
-55.9561
  0
LINE
  8
0
 10
243.72
 20
-55.9561
 11
243.23
 21
-56.0449
  0
LINE
  8
0
 10
243.23
 20
-56.0449
 11
242.779
 21
-56.1162
  0
LINE
  8
0
 10
242.779
 20
-56.1162
 11
242.323
 21
-56.0986
  0
LINE
  8
0
 10
242.323
 20
-56.0986
 11
241.88
 21
-55.9912
  0
LINE
  8
0
 10
241.88
 20
-55.9912
 11
241.465
 21
-55.7988
  0
LINE
  8
0
 10
241.465
 20
-55.7988
 11
241.097
 21
-55.5293
  0
LINE
  8
0
 10
241.097
 20
-55.5293
 11
240.788
 21
-55.1924
  0
LINE
  8
0
 10
240.788
 20
-55.1924
 11
240.552
 21
-54.8018
  0
LINE
  8
0
 10
240.552
 20
-54.8018
 11
240.396
 21
-54.373
  0
LINE
  8
0
 10
240.396
 20
-54.373
 11
237.087
 21
-40.3506
  0
LINE
  8
0
 10
237.087
 20
-40.3506
 11
237.016
 21
-39.8994
  0
LINE
  8
0
 10
237.016
 20
-39.8994
 11
237.034
 21
-39.4434
  0
LINE
  8
0
 10
237.034
 20
-39.4434
 11
237.142
 21
-38.999
  0
LINE
  8
0
 10
237.142
 20
-38.999
 11
237.333
 21
-38.585
  0
LINE
  8
0
 10
237.333
 20
-38.585
 11
237.604
 21
-38.2168
  0
LINE
  8
0
 10
237.604
 20
-38.2168
 11
237.939
 21
-37.9082
  0
LINE
  8
0
 10
237.939
 20
-37.9082
 11
238.33
 21
-37.6709
  0
LINE
  8
0
 10
238.33
 20
-37.6709
 11
238.76
 21
-37.5156
  0
LINE
  8
0
 10
238.76
 20
-37.5156
 11
239.223
 21
-37.333
  0
LINE
  8
0
 10
239.223
 20
-37.333
 11
239.641
 21
-37.0625
  0
LINE
  8
0
 10
239.641
 20
-37.0625
 11
239.997
 21
-36.7168
  0
LINE
  8
0
 10
239.997
 20
-36.7168
 11
240.28
 21
-36.3076
  0
LINE
  8
0
 10
240.28
 20
-36.3076
 11
240.478
 21
-35.8516
  0
LINE
  8
0
 10
240.478
 20
-35.8516
 11
240.582
 21
-35.3652
  0
LINE
  8
0
 10
240.582
 20
-35.3652
 11
240.59
 21
-34.8682
  0
LINE
  8
0
 10
240.59
 20
-34.8682
 11
240.5
 21
-34.3789
  0
LINE
  8
0
 10
240.5
 20
-34.3789
 11
237.121
 21
-20.8154
  0
LINE
  8
0
 10
237.121
 20
-20.8154
 11
236.938
 21
-20.3525
  0
LINE
  8
0
 10
236.938
 20
-20.3525
 11
236.669
 21
-19.9355
  0
LINE
  8
0
 10
236.669
 20
-19.9355
 11
236.322
 21
-19.5781
  0
LINE
  8
0
 10
236.322
 20
-19.5781
 11
235.913
 21
-19.2959
  0
LINE
  8
0
 10
235.913
 20
-19.2959
 11
235.457
 21
-19.0986
  0
LINE
  8
0
 10
235.457
 20
-19.0986
 11
234.971
 21
-18.9941
  0
LINE
  8
0
 10
234.971
 20
-18.9941
 11
234.474
 21
-18.9863
  0
LINE
  8
0
 10
234.474
 20
-18.9863
 11
233.984
 21
-19.0752
  0
LINE
  8
0
 10
233.984
 20
-19.0752
 11
144.1
 21
-41.502
  0
LINE
  8
0
 10
144.1
 20
-41.502
 11
144.1
 21
-74.8789
  0
LINE
  8
0
 10
144.1
 20
-74.8789
 11
125.501
 21
-74.8789
  0
LINE
  8
0
 10
125.501
 20
-74.8789
 11
125.501
 21
-41.5039
  0
LINE
  8
0
 10
125.501
 20
-41.5039
 11
35.5215
 21
-19.0752
  0
LINE
  8
0
 10
35.5215
 20
-19.0752
 11
35.0322
 21
-19.0039
  0
LINE
  8
0
 10
35.0322
 20
-19.0039
 11
34.5371
 21
-19.0283
  0
LINE
  8
0
 10
34.5371
 20
-19.0283
 11
34.0576
 21
-19.1494
  0
LINE
  8
0
 10
34.0576
 20
-19.1494
 11
33.6104
 21
-19.3623
  0
LINE
  8
0
 10
33.6104
 20
-19.3623
 11
33.2129
 21
-19.6582
  0
LINE
  8
0
 10
33.2129
 20
-19.6582
 11
32.8809
 21
-20.0254
  0
LINE
  8
0
 10
32.8809
 20
-20.0254
 11
32.627
 21
-20.4502
  0
LINE
  8
0
 10
32.627
 20
-20.4502
 11
32.4609
 21
-20.917
  0
LINE
  8
0
 10
32.4609
 20
-20.917
 11
29.0703
 21
-34.4932
  0
LINE
  8
0
 10
29.0703
 20
-34.4932
 11
28.998
 21
-34.9805
  0
LINE
  8
0
 10
28.998
 20
-34.9805
 11
29.0225
 21
-35.4727
  0
LINE
  8
0
 10
29.0225
 20
-35.4727
 11
29.1426
 21
-35.9502
  0
LINE
  8
0
 10
29.1426
 20
-35.9502
 11
29.3535
 21
-36.3955
  0
LINE
  8
0
 10
29.3535
 20
-36.3955
 11
29.6475
 21
-36.792
  0
LINE
  8
0
 10
29.6475
 20
-36.792
 11
30.0127
 21
-37.1221
  0
LINE
  8
0
 10
30.0127
 20
-37.1221
 11
30.4355
 21
-37.375
  0
LINE
  8
0
 10
30.4355
 20
-37.375
 11
30.8994
 21
-37.541
  0
LINE
  8
0
 10
30.8994
 20
-37.541
 11
31.3047
 21
-37.6914
  0
LINE
  8
0
 10
31.3047
 20
-37.6914
 11
31.6729
 21
-37.917
  0
LINE
  8
0
 10
31.6729
 20
-37.917
 11
31.9902
 21
-38.2109
  0
LINE
  8
0
 10
31.9902
 20
-38.2109
 11
32.2441
 21
-38.5615
  0
LINE
  8
0
 10
32.2441
 20
-38.5615
 11
32.4248
 21
-38.9541
  0
LINE
  8
0
 10
32.4248
 20
-38.9541
 11
32.5254
 21
-39.375
  0
LINE
  8
0
 10
32.5254
 20
-39.375
 11
32.542
 21
-39.8066
  0
LINE
  8
0
 10
32.542
 20
-39.8066
 11
32.4736
 21
-40.2334
  0
LINE
  8
0
 10
32.4736
 20
-40.2334
 11
28.9561
 21
-54.4199
  0
LINE
  8
0
 10
28.9561
 20
-54.4199
 11
28.8057
 21
-54.8252
  0
LINE
  8
0
 10
28.8057
 20
-54.8252
 11
28.5801
 21
-55.1934
  0
LINE
  8
0
 10
28.5801
 20
-55.1934
 11
28.2861
 21
-55.5107
  0
LINE
  8
0
 10
28.2861
 20
-55.5107
 11
27.9355
 21
-55.7646
  0
LINE
  8
0
 10
27.9355
 20
-55.7646
 11
27.543
 21
-55.9453
  0
LINE
  8
0
 10
27.543
 20
-55.9453
 11
27.123
 21
-56.0459
  0
LINE
  8
0
 10
27.123
 20
-56.0459
 11
26.6904
 21
-56.0625
  0
LINE
  8
0
 10
26.6904
 20
-56.0625
 11
26.2637
 21
-55.9941
  0
LINE
  8
0
 10
26.2637
 20
-55.9941
 11
25.7705
 21
-55.9199
  0
LINE
  8
0
 10
25.7705
 20
-55.9199
 11
25.2734
 21
-55.9434
  0
LINE
  8
0
 10
25.2734
 20
-55.9434
 11
24.79
 21
-56.0635
  0
LINE
  8
0
 10
24.79
 20
-56.0635
 11
24.3389
 21
-56.2764
  0
LINE
  8
0
 10
24.3389
 20
-56.2764
 11
23.9385
 21
-56.5723
  0
LINE
  8
0
 10
23.9385
 20
-56.5723
 11
23.6035
 21
-56.9404
  0
LINE
  8
0
 10
23.6035
 20
-56.9404
 11
23.3467
 21
-57.3672
  0
LINE
  8
0
 10
23.3467
 20
-57.3672
 11
23.1777
 21
-57.8359
  0
LINE
  8
0
 10
23.1777
 20
-57.8359
 11
19.7988
 21
-71.4248
  0
LINE
  8
0
 10
19.7988
 20
-71.4248
 11
19.7256
 21
-71.917
  0
LINE
  8
0
 10
19.7256
 20
-71.917
 11
19.749
 21
-72.415
  0
LINE
  8
0
 10
19.749
 20
-72.415
 11
19.8691
 21
-72.8984
  0
LINE
  8
0
 10
19.8691
 20
-72.8984
 11
20.0811
 21
-73.3496
  0
LINE
  8
0
 10
20.0811
 20
-73.3496
 11
20.377
 21
-73.75
  0
LINE
  8
0
 10
20.377
 20
-73.75
 11
20.7451
 21
-74.085
  0
LINE
  8
0
 10
20.7451
 20
-74.085
 11
21.1719
 21
-74.3418
  0
LINE
  8
0
 10
21.1719
 20
-74.3418
 11
21.6406
 21
-74.5107
  0
LINE
  8
0
 10
21.6406
 20
-74.5107
 11
58.6865
 21
-83.7314
  0
LINE
  8
0
 10
58.6865
 20
-83.7314
 11
59.0918
 21
-83.8809
  0
LINE
  8
0
 10
59.0918
 20
-83.8809
 11
59.4609
 21
-84.1074
  0
LINE
  8
0
 10
59.4609
 20
-84.1074
 11
59.7783
 21
-84.4014
  0
LINE
  8
0
 10
59.7783
 20
-84.4014
 11
60.0312
 21
-84.751
  0
LINE
  8
0
 10
60.0312
 20
-84.751
 11
60.2119
 21
-85.1436
  0
LINE
  8
0
 10
60.2119
 20
-85.1436
 11
60.3125
 21
-85.5645
  0
LINE
  8
0
 10
60.3125
 20
-85.5645
 11
60.3291
 21
-85.9961
  0
LINE
  8
0
 10
60.3291
 20
-85.9961
 11
60.2617
 21
-86.4238
  0
LINE
  8
0
 10
60.2617
 20
-86.4238
 11
56.8066
 21
-100.33
  0
LINE
  8
0
 10
56.8066
 20
-100.33
 11
56.7334
 21
-100.822
  0
LINE
  8
0
 10
56.7334
 20
-100.822
 11
56.7568
 21
-101.32
  0
LINE
  8
0
 10
56.7568
 20
-101.32
 11
56.877
 21
-101.804
  0
LINE
  8
0
 10
56.877
 20
-101.804
 11
57.0889
 21
-102.254
  0
LINE
  8
0
 10
57.0889
 20
-102.254
 11
57.3848
 21
-102.655
  0
LINE
  8
0
 10
57.3848
 20
-102.655
 11
57.7529
 21
-102.99
  0
LINE
  8
0
 10
57.7529
 20
-102.99
 11
58.1797
 21
-103.247
  0
LINE
  8
0
 10
58.1797
 20
-103.247
 11
58.6484
 21
-103.416
  0
LINE
  8
0
 10
58.6484
 20
-103.416
 11
109.169
 21
-115.964
  0
LINE
  8
0
 10
109.169
 20
-115.964
 11
109.661
 21
-116.038
  0
LINE
  8
0
 10
109.661
 20
-116.038
 11
110.159
 21
-116.015
  0
LINE
  8
0
 10
110.159
 20
-116.015
 11
110.643
 21
-115.895
  0
LINE
  8
0
 10
110.643
 20
-115.895
 11
111.093
 21
-115.683
  0
LINE
  8
0
 10
111.093
 20
-115.683
 11
111.494
 21
-115.387
  0
LINE
  8
0
 10
111.494
 20
-115.387
 11
111.829
 21
-115.018
  0
LINE
  8
0
 10
111.829
 20
-115.018
 11
112.086
 21
-114.591
  0
LINE
  8
0
 10
112.086
 20
-114.591
 11
112.255
 21
-114.122
  0
LINE
  8
0
 10
112.255
 20
-114.122
 11
115.723
 21
-100.241
  0
LINE
  8
0
 10
115.723
 20
-100.241
 11
115.872
 21
-99.8359
  0
LINE
  8
0
 10
115.872
 20
-99.8359
 11
116.099
 21
-99.4668
  0
LINE
  8
0
 10
116.099
 20
-99.4668
 11
116.393
 21
-99.1504
  0
LINE
  8
0
 10
116.393
 20
-99.1504
 11
116.742
 21
-98.8965
  0
LINE
  8
0
 10
116.742
 20
-98.8965
 11
117.136
 21
-98.7158
  0
LINE
  8
0
 10
117.136
 20
-98.7158
 11
117.556
 21
-98.6152
  0
LINE
  8
0
 10
117.556
 20
-98.6152
 11
117.988
 21
-98.5986
  0
LINE
  8
0
 10
117.988
 20
-98.5986
 11
118.415
 21
-98.666
  0
LINE
  8
0
 10
118.415
 20
-98.666
 11
129.229
 21
-100.442
  0
LINE
  8
0
 10
129.229
 20
-100.442
 11
140.188
 21
-100.447
  0
LINE
  8
0
 10
140.188
 20
-100.447
 11
151.003
 21
-98.6787
  0
LINE
  8
0
 10
151.003
 20
-98.6787
 11
151.454
 21
-98.6074
  0
LINE
  8
0
 10
151.454
 20
-98.6074
 11
151.911
 21
-98.626
  0
LINE
  8
0
 10
151.911
 20
-98.626
 11
152.354
 21
-98.7334
  0
LINE
  8
0
 10
152.354
 20
-98.7334
 11
152.769
 21
-98.9258
  0
LINE
  8
0
 10
152.769
 20
-98.9258
 11
153.138
 21
-99.1953
  0
LINE
  8
0
 10
153.138
 20
-99.1953
 11
153.445
 21
-99.5312
  0
LINE
  8
0
 10
153.445
 20
-99.5312
 11
153.683
 21
-99.9219
  0
LINE
  8
0
 10
153.683
 20
-99.9219
 11
153.838
 21
-100.352
  0
LINE
  8
0
 10
153.838
 20
-100.352
 11
157.327
 21
-114.224
  0
LINE
  8
0
 10
157.327
 20
-114.224
 11
157.511
 21
-114.686
  0
LINE
  8
0
 10
157.511
 20
-114.686
 11
157.78
 21
-115.104
  0
LINE
  8
0
 10
157.78
 20
-115.104
 11
158.127
 21
-115.461
  0
LINE
  8
0
 10
158.127
 20
-115.461
 11
158.536
 21
-115.743
  0
LINE
  8
0
 10
158.536
 20
-115.743
 11
158.992
 21
-115.94
  0
LINE
  8
0
 10
158.992
 20
-115.94
 11
159.479
 21
-116.045
  0
LINE
  8
0
 10
159.479
 20
-116.045
 11
159.976
 21
-116.053
  0
LINE
  8
0
 10
159.976
 20
-116.053
 11
160.465
 21
-115.964
  0
LINE
  8
0
 10
31.5146
 20
-35.0986
 11
34.9014
 21
-21.5146
  0
LINE
  8
0
 10
34.9014
 20
-21.5146
 11
48.4854
 21
-24.9014
  0
LINE
  8
0
 10
48.4854
 20
-24.9014
 11
45.0986
 21
-38.4854
  0
LINE
  8
0
 10
45.0986
 20
-38.4854
 11
31.5146
 21
-35.0986
  0
LINE
  8
0
 10
221.102
 20
-24.9014
 11
234.686
 21
-21.5146
  0
LINE
  8
0
 10
234.686
 20
-21.5146
 11
238.073
 21
-35.0986
  0
LINE
  8
0
 10
238.073
 20
-35.0986
 11
224.489
 21
-38.4854
  0
LINE
  8
0
 10
224.489
 20
-38.4854
 11
221.102
 21
-24.9014
  0
LINE
  8
0
 10
49.999
 20
-39.707
 11
53.3857
 21
-26.123
  0
LINE
  8
0
 10
53.3857
 20
-26.123
 11
66.9697
 21
-29.5098
  0
LINE
  8
0
 10
66.9697
 20
-29.5098
 11
63.583
 21
-43.0938
  0
LINE
  8
0
 10
63.583
 20
-43.0938
 11
49.999
 21
-39.707
  0
LINE
  8
0
 10
202.618
 20
-29.5098
 11
216.202
 21
-26.123
  0
LINE
  8
0
 10
216.202
 20
-26.123
 11
219.589
 21
-39.707
  0
LINE
  8
0
 10
219.589
 20
-39.707
 11
206.005
 21
-43.0938
  0
LINE
  8
0
 10
206.005
 20
-43.0938
 11
202.618
 21
-29.5098
  0
LINE
  8
0
 10
68.4824
 20
-44.3154
 11
71.8691
 21
-30.7314
  0
LINE
  8
0
 10
71.8691
 20
-30.7314
 11
85.4541
 21
-34.1182
  0
LINE
  8
0
 10
85.4541
 20
-34.1182
 11
82.0674
 21
-47.7031
  0
LINE
  8
0
 10
82.0674
 20
-47.7031
 11
68.4824
 21
-44.3154
  0
LINE
  8
0
 10
184.134
 20
-34.1182
 11
197.718
 21
-30.7314
  0
LINE
  8
0
 10
197.718
 20
-30.7314
 11
201.105
 21
-44.3154
  0
LINE
  8
0
 10
201.105
 20
-44.3154
 11
187.521
 21
-47.7031
  0
LINE
  8
0
 10
187.521
 20
-47.7031
 11
184.134
 21
-34.1182
  0
LINE
  8
0
 10
86.9668
 20
-48.9248
 11
90.3535
 21
-35.3398
  0
LINE
  8
0
 10
90.3535
 20
-35.3398
 11
103.938
 21
-38.7275
  0
LINE
  8
0
 10
103.938
 20
-38.7275
 11
100.551
 21
-52.3115
  0
LINE
  8
0
 10
100.551
 20
-52.3115
 11
86.9668
 21
-48.9248
  0
LINE
  8
0
 10
165.65
 20
-38.7275
 11
179.234
 21
-35.3398
  0
LINE
  8
0
 10
179.234
 20
-35.3398
 11
182.621
 21
-48.9248
  0
LINE
  8
0
 10
182.621
 20
-48.9248
 11
169.037
 21
-52.3115
  0
LINE
  8
0
 10
169.037
 20
-52.3115
 11
165.65
 21
-38.7275
  0
LINE
  8
0
 10
105.451
 20
-53.5332
 11
108.838
 21
-39.9492
  0
LINE
  8
0
 10
108.838
 20
-39.9492
 11
122.422
 21
-43.3359
  0
LINE
  8
0
 10
122.422
 20
-43.3359
 11
119.035
 21
-56.9199
  0
LINE
  8
0
 10
119.035
 20
-56.9199
 11
105.451
 21
-53.5332
  0
LINE
  8
0
 10
147.166
 20
-43.3359
 11
160.75
 21
-39.9492
  0
LINE
  8
0
 10
160.75
 20
-39.9492
 11
164.137
 21
-53.5332
  0
LINE
  8
0
 10
164.137
 20
-53.5332
 11
150.553
 21
-56.9199
  0
LINE
  8
0
 10
150.553
 20
-56.9199
 11
147.166
 21
-43.3359
  0
LINE
  8
0
 10
222.535
 20
-42.6403
 11
222.31
 21
-42.5925
  0
LINE
  8
0
 10
222.31
 20
-42.5925
 11
222.1
 21
-42.4989
  0
LINE
  8
0
 10
222.1
 20
-42.4989
 11
221.914
 21
-42.3638
  0
LINE
  8
0
 10
221.914
 20
-42.3638
 11
221.76
 21
-42.1929
  0
LINE
  8
0
 10
221.76
 20
-42.1929
 11
221.645
 21
-41.9937
  0
LINE
  8
0
 10
221.645
 20
-41.9937
 11
221.574
 21
-41.775
  0
LINE
  8
0
 10
221.574
 20
-41.775
 11
221.55
 21
-41.5463
  0
LINE
  8
0
 10
221.55
 20
-41.5463
 11
221.574
 21
-41.3176
  0
LINE
  8
0
 10
221.574
 20
-41.3176
 11
221.645
 21
-41.0989
  0
LINE
  8
0
 10
221.645
 20
-41.0989
 11
221.76
 21
-40.8997
  0
LINE
  8
0
 10
221.76
 20
-40.8997
 11
221.914
 21
-40.7288
  0
LINE
  8
0
 10
221.914
 20
-40.7288
 11
222.1
 21
-40.5937
  0
LINE
  8
0
 10
222.1
 20
-40.5937
 11
222.31
 21
-40.5001
  0
LINE
  8
0
 10
222.31
 20
-40.5001
 11
222.535
 21
-40.4523
  0
LINE
  8
0
 10
222.535
 20
-40.4523
 11
222.765
 21
-40.4523
  0
LINE
  8
0
 10
222.765
 20
-40.4523
 11
222.99
 21
-40.5001
  0
LINE
  8
0
 10
222.99
 20
-40.5001
 11
223.2
 21
-40.5937
  0
LINE
  8
0
 10
223.2
 20
-40.5937
 11
223.386
 21
-40.7288
  0
LINE
  8
0
 10
223.386
 20
-40.7288
 11
223.54
 21
-40.8997
  0
LINE
  8
0
 10
223.54
 20
-40.8997
 11
223.655
 21
-41.0989
  0
LINE
  8
0
 10
223.655
 20
-41.0989
 11
223.726
 21
-41.3176
  0
LINE
  8
0
 10
223.726
 20
-41.3176
 11
223.75
 21
-41.5463
  0
LINE
  8
0
 10
223.75
 20
-41.5463
 11
223.726
 21
-41.775
  0
LINE
  8
0
 10
223.726
 20
-41.775
 11
223.655
 21
-41.9937
  0
LINE
  8
0
 10
223.655
 20
-41.9937
 11
223.54
 21
-42.1929
  0
LINE
  8
0
 10
223.54
 20
-42.1929
 11
223.386
 21
-42.3638
  0
LINE
  8
0
 10
223.386
 20
-42.3638
 11
223.2
 21
-42.4989
  0
LINE
  8
0
 10
223.2
 20
-42.4989
 11
222.99
 21
-42.5925
  0
LINE
  8
0
 10
222.99
 20
-42.5925
 11
222.765
 21
-42.6403
  0
LINE
  8
0
 10
222.765
 20
-42.6403
 11
222.535
 21
-42.6403
  0
LINE
  8
0
 10
31.502
 20
-54.7344
 11
34.8887
 21
-41.1504
  0
LINE
  8
0
 10
34.8887
 20
-41.1504
 11
48.4727
 21
-44.5381
  0
LINE
  8
0
 10
48.4727
 20
-44.5381
 11
45.0859
 21
-58.1221
  0
LINE
  8
0
 10
45.0859
 20
-58.1221
 11
31.502
 21
-54.7344
  0
LINE
  8
0
 10
221.09
 20
-44.5381
 11
234.674
 21
-41.1504
  0
LINE
  8
0
 10
234.674
 20
-41.1504
 11
238.061
 21
-54.7354
  0
LINE
  8
0
 10
238.061
 20
-54.7354
 11
224.477
 21
-58.1221
  0
LINE
  8
0
 10
224.477
 20
-58.1221
 11
221.09
 21
-44.5381
  0
LINE
  8
0
 10
51.4437
 20
-43.7925
 11
51.2188
 21
-43.7447
  0
LINE
  8
0
 10
51.2188
 20
-43.7447
 11
51.0087
 21
-43.6511
  0
LINE
  8
0
 10
51.0087
 20
-43.6511
 11
50.8226
 21
-43.5159
  0
LINE
  8
0
 10
50.8226
 20
-43.5159
 11
50.6688
 21
-43.3451
  0
LINE
  8
0
 10
50.6688
 20
-43.3451
 11
50.5538
 21
-43.1459
  0
LINE
  8
0
 10
50.5538
 20
-43.1459
 11
50.4827
 21
-42.9272
  0
LINE
  8
0
 10
50.4827
 20
-42.9272
 11
50.4587
 21
-42.6985
  0
LINE
  8
0
 10
50.4587
 20
-42.6985
 11
50.4827
 21
-42.4698
  0
LINE
  8
0
 10
50.4827
 20
-42.4698
 11
50.5538
 21
-42.2511
  0
LINE
  8
0
 10
50.5538
 20
-42.2511
 11
50.6688
 21
-42.0519
  0
LINE
  8
0
 10
50.6688
 20
-42.0519
 11
50.8226
 21
-41.881
  0
LINE
  8
0
 10
50.8226
 20
-41.881
 11
51.0087
 21
-41.7459
  0
LINE
  8
0
 10
51.0087
 20
-41.7459
 11
51.2188
 21
-41.6523
  0
LINE
  8
0
 10
51.2188
 20
-41.6523
 11
51.4437
 21
-41.6045
  0
LINE
  8
0
 10
51.4437
 20
-41.6045
 11
51.6737
 21
-41.6045
  0
LINE
  8
0
 10
51.6737
 20
-41.6045
 11
51.8986
 21
-41.6523
  0
LINE
  8
0
 10
51.8986
 20
-41.6523
 11
52.1087
 21
-41.7459
  0
LINE
  8
0
 10
52.1087
 20
-41.7459
 11
52.2947
 21
-41.881
  0
LINE
  8
0
 10
52.2947
 20
-41.881
 11
52.4486
 21
-42.0519
  0
LINE
  8
0
 10
52.4486
 20
-42.0519
 11
52.5636
 21
-42.2511
  0
LINE
  8
0
 10
52.5636
 20
-42.2511
 11
52.6347
 21
-42.4698
  0
LINE
  8
0
 10
52.6347
 20
-42.4698
 11
52.6587
 21
-42.6985
  0
LINE
  8
0
 10
52.6587
 20
-42.6985
 11
52.6347
 21
-42.9272
  0
LINE
  8
0
 10
52.6347
 20
-42.9272
 11
52.5636
 21
-43.1459
  0
LINE
  8
0
 10
52.5636
 20
-43.1459
 11
52.4486
 21
-43.3451
  0
LINE
  8
0
 10
52.4486
 20
-43.3451
 11
52.2947
 21
-43.5159
  0
LINE
  8
0
 10
52.2947
 20
-43.5159
 11
52.1087
 21
-43.6511
  0
LINE
  8
0
 10
52.1087
 20
-43.6511
 11
51.8986
 21
-43.7447
  0
LINE
  8
0
 10
51.8986
 20
-43.7447
 11
51.6737
 21
-43.7925
  0
LINE
  8
0
 10
51.6737
 20
-43.7925
 11
51.4437
 21
-43.7925
  0
LINE
  8
0
 10
49.9863
 20
-59.3438
 11
53.373
 21
-45.7598
  0
LINE
  8
0
 10
53.373
 20
-45.7598
 11
66.957
 21
-49.1465
  0
LINE
  8
0
 10
66.957
 20
-49.1465
 11
63.5703
 21
-62.7305
  0
LINE
  8
0
 10
63.5703
 20
-62.7305
 11
49.9863
 21
-59.3438
  0
LINE
  8
0
 10
202.606
 20
-49.1465
 11
216.19
 21
-45.7598
  0
LINE
  8
0
 10
216.19
 20
-45.7598
 11
219.577
 21
-59.3438
  0
LINE
  8
0
 10
219.577
 20
-59.3438
 11
205.992
 21
-62.7305
  0
LINE
  8
0
 10
205.992
 20
-62.7305
 11
202.606
 21
-49.1465
  0
LINE
  8
0
 10
68.4697
 20
-63.9521
 11
71.8574
 21
-50.3682
  0
LINE
  8
0
 10
71.8574
 20
-50.3682
 11
85.4414
 21
-53.7549
  0
LINE
  8
0
 10
85.4414
 20
-53.7549
 11
82.0547
 21
-67.3389
  0
LINE
  8
0
 10
82.0547
 20
-67.3389
 11
68.4697
 21
-63.9521
  0
LINE
  8
0
 10
184.121
 20
-53.7549
 11
197.706
 21
-50.3682
  0
LINE
  8
0
 10
197.706
 20
-50.3682
 11
201.092
 21
-63.9521
  0
LINE
  8
0
 10
201.092
 20
-63.9521
 11
187.508
 21
-67.3389
  0
LINE
  8
0
 10
187.508
 20
-67.3389
 11
184.121
 21
-53.7549
  0
LINE
  8
0
 10
167.083
 20
-56.4662
 11
166.858
 21
-56.4184
  0
LINE
  8
0
 10
166.858
 20
-56.4184
 11
166.647
 21
-56.3248
  0
LINE
  8
0
 10
166.647
 20
-56.3248
 11
166.461
 21
-56.1897
  0
LINE
  8
0
 10
166.461
 20
-56.1897
 11
166.308
 21
-56.0188
  0
LINE
  8
0
 10
166.308
 20
-56.0188
 11
166.193
 21
-55.8196
  0
LINE
  8
0
 10
166.193
 20
-55.8196
 11
166.122
 21
-55.6009
  0
LINE
  8
0
 10
166.122
 20
-55.6009
 11
166.097
 21
-55.3722
  0
LINE
  8
0
 10
166.097
 20
-55.3722
 11
166.122
 21
-55.1435
  0
LINE
  8
0
 10
166.122
 20
-55.1435
 11
166.193
 21
-54.9248
  0
LINE
  8
0
 10
166.193
 20
-54.9248
 11
166.308
 21
-54.7256
  0
LINE
  8
0
 10
166.308
 20
-54.7256
 11
166.461
 21
-54.5547
  0
LINE
  8
0
 10
166.461
 20
-54.5547
 11
166.647
 21
-54.4196
  0
LINE
  8
0
 10
166.647
 20
-54.4196
 11
166.858
 21
-54.326
  0
LINE
  8
0
 10
166.858
 20
-54.326
 11
167.083
 21
-54.2782
  0
LINE
  8
0
 10
167.083
 20
-54.2782
 11
167.312
 21
-54.2782
  0
LINE
  8
0
 10
167.312
 20
-54.2782
 11
167.537
 21
-54.326
  0
LINE
  8
0
 10
167.537
 20
-54.326
 11
167.747
 21
-54.4196
  0
LINE
  8
0
 10
167.747
 20
-54.4196
 11
167.934
 21
-54.5547
  0
LINE
  8
0
 10
167.934
 20
-54.5547
 11
168.087
 21
-54.7256
  0
LINE
  8
0
 10
168.087
 20
-54.7256
 11
168.202
 21
-54.9248
  0
LINE
  8
0
 10
168.202
 20
-54.9248
 11
168.273
 21
-55.1435
  0
LINE
  8
0
 10
168.273
 20
-55.1435
 11
168.297
 21
-55.3722
  0
LINE
  8
0
 10
168.297
 20
-55.3722
 11
168.273
 21
-55.6009
  0
LINE
  8
0
 10
168.273
 20
-55.6009
 11
168.202
 21
-55.8196
  0
LINE
  8
0
 10
168.202
 20
-55.8196
 11
168.087
 21
-56.0188
  0
LINE
  8
0
 10
168.087
 20
-56.0188
 11
167.934
 21
-56.1897
  0
LINE
  8
0
 10
167.934
 20
-56.1897
 11
167.747
 21
-56.3248
  0
LINE
  8
0
 10
167.747
 20
-56.3248
 11
167.537
 21
-56.4184
  0
LINE
  8
0
 10
167.537
 20
-56.4184
 11
167.312
 21
-56.4662
  0
LINE
  8
0
 10
167.312
 20
-56.4662
 11
167.083
 21
-56.4662
  0
LINE
  8
0
 10
102.275
 20
-56.4662
 11
102.05
 21
-56.4184
  0
LINE
  8
0
 10
102.05
 20
-56.4184
 11
101.84
 21
-56.3248
  0
LINE
  8
0
 10
101.84
 20
-56.3248
 11
101.654
 21
-56.1897
  0
LINE
  8
0
 10
101.654
 20
-56.1897
 11
101.5
 21
-56.0188
  0
LINE
  8
0
 10
101.5
 20
-56.0188
 11
101.385
 21
-55.8196
  0
LINE
  8
0
 10
101.385
 20
-55.8196
 11
101.314
 21
-55.6009
  0
LINE
  8
0
 10
101.314
 20
-55.6009
 11
101.29
 21
-55.3722
  0
LINE
  8
0
 10
101.29
 20
-55.3722
 11
101.314
 21
-55.1435
  0
LINE
  8
0
 10
101.314
 20
-55.1435
 11
101.385
 21
-54.9248
  0
LINE
  8
0
 10
101.385
 20
-54.9248
 11
101.5
 21
-54.7256
  0
LINE
  8
0
 10
101.5
 20
-54.7256
 11
101.654
 21
-54.5547
  0
LINE
  8
0
 10
101.654
 20
-54.5547
 11
101.84
 21
-54.4196
  0
LINE
  8
0
 10
101.84
 20
-54.4196
 11
102.05
 21
-54.326
  0
LINE
  8
0
 10
102.05
 20
-54.326
 11
102.275
 21
-54.2782
  0
LINE
  8
0
 10
102.275
 20
-54.2782
 11
102.505
 21
-54.2782
  0
LINE
  8
0
 10
102.505
 20
-54.2782
 11
102.73
 21
-54.326
  0
LINE
  8
0
 10
102.73
 20
-54.326
 11
102.94
 21
-54.4196
  0
LINE
  8
0
 10
102.94
 20
-54.4196
 11
103.126
 21
-54.5547
  0
LINE
  8
0
 10
103.126
 20
-54.5547
 11
103.28
 21
-54.7256
  0
LINE
  8
0
 10
103.28
 20
-54.7256
 11
103.395
 21
-54.9248
  0
LINE
  8
0
 10
103.395
 20
-54.9248
 11
103.466
 21
-55.1435
  0
LINE
  8
0
 10
103.466
 20
-55.1435
 11
103.49
 21
-55.3722
  0
LINE
  8
0
 10
103.49
 20
-55.3722
 11
103.466
 21
-55.6009
  0
LINE
  8
0
 10
103.466
 20
-55.6009
 11
103.395
 21
-55.8196
  0
LINE
  8
0
 10
103.395
 20
-55.8196
 11
103.28
 21
-56.0188
  0
LINE
  8
0
 10
103.28
 20
-56.0188
 11
103.126
 21
-56.1897
  0
LINE
  8
0
 10
103.126
 20
-56.1897
 11
102.94
 21
-56.3248
  0
LINE
  8
0
 10
102.94
 20
-56.3248
 11
102.73
 21
-56.4184
  0
LINE
  8
0
 10
102.73
 20
-56.4184
 11
102.505
 21
-56.4662
  0
LINE
  8
0
 10
102.505
 20
-56.4662
 11
102.275
 21
-56.4662
  0
LINE
  8
0
 10
86.9541
 20
-68.5605
 11
90.3408
 21
-54.9766
  0
LINE
  8
0
 10
90.3408
 20
-54.9766
 11
103.925
 21
-58.3633
  0
LINE
  8
0
 10
103.925
 20
-58.3633
 11
100.539
 21
-71.9473
  0
LINE
  8
0
 10
100.539
 20
-71.9473
 11
86.9541
 21
-68.5605
  0
LINE
  8
0
 10
165.637
 20
-58.3633
 11
179.221
 21
-54.9766
  0
LINE
  8
0
 10
179.221
 20
-54.9766
 11
182.608
 21
-68.5605
  0
LINE
  8
0
 10
182.608
 20
-68.5605
 11
169.024
 21
-71.9473
  0
LINE
  8
0
 10
169.024
 20
-71.9473
 11
165.637
 21
-58.3633
  0
LINE
  8
0
 10
22.2725
 20
-72.0664
 11
25.6592
 21
-58.4824
  0
LINE
  8
0
 10
25.6592
 20
-58.4824
 11
39.2432
 21
-61.8691
  0
LINE
  8
0
 10
39.2432
 20
-61.8691
 11
35.8564
 21
-75.4531
  0
LINE
  8
0
 10
35.8564
 20
-75.4531
 11
22.2725
 21
-72.0664
  0
LINE
  8
0
 10
230.319
 20
-61.8691
 11
243.903
 21
-58.4824
  0
LINE
  8
0
 10
243.903
 20
-58.4824
 11
247.29
 21
-72.0664
  0
LINE
  8
0
 10
247.29
 20
-72.0664
 11
233.706
 21
-75.4541
  0
LINE
  8
0
 10
233.706
 20
-75.4541
 11
230.319
 21
-61.8691
  0
LINE
  8
0
 10
147.153
 20
-62.9717
 11
160.737
 21
-59.585
  0
LINE
  8
0
 10
160.737
 20
-59.585
 11
164.124
 21
-73.1689
  0
LINE
  8
0
 10
164.124
 20
-73.1689
 11
150.54
 21
-76.5566
  0
LINE
  8
0
 10
150.54
 20
-76.5566
 11
147.153
 21
-62.9717
  0
LINE
  8
0
 10
105.439
 20
-73.1689
 11
108.825
 21
-59.585
  0
LINE
  8
0
 10
108.825
 20
-59.585
 11
122.41
 21
-62.9717
  0
LINE
  8
0
 10
122.41
 20
-62.9717
 11
119.023
 21
-76.5566
  0
LINE
  8
0
 10
119.023
 20
-76.5566
 11
105.439
 21
-73.1689
  0
LINE
  8
0
 10
46.8102
 20
-62.2765
 11
46.5853
 21
-62.2287
  0
LINE
  8
0
 10
46.5853
 20
-62.2287
 11
46.3752
 21
-62.1351
  0
LINE
  8
0
 10
46.3752
 20
-62.1351
 11
46.1891
 21
-62
  0
LINE
  8
0
 10
46.1891
 20
-62
 11
46.0353
 21
-61.8291
  0
LINE
  8
0
 10
46.0353
 20
-61.8291
 11
45.9203
 21
-61.6299
  0
LINE
  8
0
 10
45.9203
 20
-61.6299
 11
45.8492
 21
-61.4112
  0
LINE
  8
0
 10
45.8492
 20
-61.4112
 11
45.8252
 21
-61.1825
  0
LINE
  8
0
 10
45.8252
 20
-61.1825
 11
45.8492
 21
-60.9538
  0
LINE
  8
0
 10
45.8492
 20
-60.9538
 11
45.9203
 21
-60.7351
  0
LINE
  8
0
 10
45.9203
 20
-60.7351
 11
46.0353
 21
-60.5359
  0
LINE
  8
0
 10
46.0353
 20
-60.5359
 11
46.1891
 21
-60.365
  0
LINE
  8
0
 10
46.1891
 20
-60.365
 11
46.3752
 21
-60.2299
  0
LINE
  8
0
 10
46.3752
 20
-60.2299
 11
46.5853
 21
-60.1363
  0
LINE
  8
0
 10
46.5853
 20
-60.1363
 11
46.8102
 21
-60.0885
  0
LINE
  8
0
 10
46.8102
 20
-60.0885
 11
47.0402
 21
-60.0885
  0
LINE
  8
0
 10
47.0402
 20
-60.0885
 11
47.2651
 21
-60.1363
  0
LINE
  8
0
 10
47.2651
 20
-60.1363
 11
47.4752
 21
-60.2299
  0
LINE
  8
0
 10
47.4752
 20
-60.2299
 11
47.6612
 21
-60.365
  0
LINE
  8
0
 10
47.6612
 20
-60.365
 11
47.8151
 21
-60.5359
  0
LINE
  8
0
 10
47.8151
 20
-60.5359
 11
47.9301
 21
-60.7351
  0
LINE
  8
0
 10
47.9301
 20
-60.7351
 11
48.0012
 21
-60.9538
  0
LINE
  8
0
 10
48.0012
 20
-60.9538
 11
48.0252
 21
-61.1825
  0
LINE
  8
0
 10
48.0252
 20
-61.1825
 11
48.0012
 21
-61.4112
  0
LINE
  8
0
 10
48.0012
 20
-61.4112
 11
47.9301
 21
-61.6299
  0
LINE
  8
0
 10
47.9301
 20
-61.6299
 11
47.8151
 21
-61.8291
  0
LINE
  8
0
 10
47.8151
 20
-61.8291
 11
47.6612
 21
-62
  0
LINE
  8
0
 10
47.6612
 20
-62
 11
47.4752
 21
-62.1351
  0
LINE
  8
0
 10
47.4752
 20
-62.1351
 11
47.2651
 21
-62.2287
  0
LINE
  8
0
 10
47.2651
 20
-62.2287
 11
47.0402
 21
-62.2765
  0
LINE
  8
0
 10
47.0402
 20
-62.2765
 11
46.8102
 21
-62.2765
  0
LINE
  8
0
 10
222.522
 20
-62.2766
 11
222.297
 21
-62.2288
  0
LINE
  8
0
 10
222.297
 20
-62.2288
 11
222.087
 21
-62.1352
  0
LINE
  8
0
 10
222.087
 20
-62.1352
 11
221.901
 21
-62
  0
LINE
  8
0
 10
221.901
 20
-62
 11
221.747
 21
-61.8292
  0
LINE
  8
0
 10
221.747
 20
-61.8292
 11
221.632
 21
-61.63
  0
LINE
  8
0
 10
221.632
 20
-61.63
 11
221.561
 21
-61.4113
  0
LINE
  8
0
 10
221.561
 20
-61.4113
 11
221.537
 21
-61.1826
  0
LINE
  8
0
 10
221.537
 20
-61.1826
 11
221.561
 21
-60.9539
  0
LINE
  8
0
 10
221.561
 20
-60.9539
 11
221.632
 21
-60.7352
  0
LINE
  8
0
 10
221.632
 20
-60.7352
 11
221.747
 21
-60.536
  0
LINE
  8
0
 10
221.747
 20
-60.536
 11
221.901
 21
-60.3651
  0
LINE
  8
0
 10
221.901
 20
-60.3651
 11
222.087
 21
-60.23
  0
LINE
  8
0
 10
222.087
 20
-60.23
 11
222.297
 21
-60.1364
  0
LINE
  8
0
 10
222.297
 20
-60.1364
 11
222.522
 21
-60.0886
  0
LINE
  8
0
 10
222.522
 20
-60.0886
 11
222.752
 21
-60.0886
  0
LINE
  8
0
 10
222.752
 20
-60.0886
 11
222.977
 21
-60.1364
  0
LINE
  8
0
 10
222.977
 20
-60.1364
 11
223.187
 21
-60.23
  0
LINE
  8
0
 10
223.187
 20
-60.23
 11
223.373
 21
-60.3651
  0
LINE
  8
0
 10
223.373
 20
-60.3651
 11
223.527
 21
-60.536
  0
LINE
  8
0
 10
223.527
 20
-60.536
 11
223.642
 21
-60.7352
  0
LINE
  8
0
 10
223.642
 20
-60.7352
 11
223.713
 21
-60.9539
  0
LINE
  8
0
 10
223.713
 20
-60.9539
 11
223.737
 21
-61.1826
  0
LINE
  8
0
 10
223.737
 20
-61.1826
 11
223.713
 21
-61.4113
  0
LINE
  8
0
 10
223.713
 20
-61.4113
 11
223.642
 21
-61.63
  0
LINE
  8
0
 10
223.642
 20
-61.63
 11
223.527
 21
-61.8292
  0
LINE
  8
0
 10
223.527
 20
-61.8292
 11
223.373
 21
-62
  0
LINE
  8
0
 10
223.373
 20
-62
 11
223.187
 21
-62.1352
  0
LINE
  8
0
 10
223.187
 20
-62.1352
 11
222.977
 21
-62.2288
  0
LINE
  8
0
 10
222.977
 20
-62.2288
 11
222.752
 21
-62.2766
  0
LINE
  8
0
 10
222.752
 20
-62.2766
 11
222.522
 21
-62.2766
  0
LINE
  8
0
 10
211.835
 20
-66.4785
 11
225.419
 21
-63.0908
  0
LINE
  8
0
 10
225.419
 20
-63.0908
 11
228.806
 21
-76.6758
  0
LINE
  8
0
 10
228.806
 20
-76.6758
 11
215.222
 21
-80.0625
  0
LINE
  8
0
 10
215.222
 20
-80.0625
 11
211.835
 21
-66.4785
  0
LINE
  8
0
 10
40.7568
 20
-76.6758
 11
44.1436
 21
-63.0908
  0
LINE
  8
0
 10
44.1436
 20
-63.0908
 11
57.7275
 21
-66.4785
  0
LINE
  8
0
 10
57.7275
 20
-66.4785
 11
54.3408
 21
-80.0625
  0
LINE
  8
0
 10
54.3408
 20
-80.0625
 11
40.7568
 21
-76.6758
  0
LINE
  8
0
 10
193.351
 20
-71.0869
 11
206.935
 21
-67.7002
  0
LINE
  8
0
 10
206.935
 20
-67.7002
 11
210.322
 21
-81.2842
  0
LINE
  8
0
 10
210.322
 20
-81.2842
 11
196.738
 21
-84.6709
  0
LINE
  8
0
 10
196.738
 20
-84.6709
 11
193.351
 21
-71.0869
  0
LINE
  8
0
 10
59.2402
 20
-81.2842
 11
62.627
 21
-67.7002
  0
LINE
  8
0
 10
62.627
 20
-67.7002
 11
76.2119
 21
-71.0869
  0
LINE
  8
0
 10
76.2119
 20
-71.0869
 11
72.8242
 21
-84.6709
  0
LINE
  8
0
 10
72.8242
 20
-84.6709
 11
59.2402
 21
-81.2842
  0
LINE
  8
0
 10
174.867
 20
-75.6953
 11
188.451
 21
-72.3086
  0
LINE
  8
0
 10
188.451
 20
-72.3086
 11
191.838
 21
-85.8926
  0
LINE
  8
0
 10
191.838
 20
-85.8926
 11
178.254
 21
-89.2793
  0
LINE
  8
0
 10
178.254
 20
-89.2793
 11
174.867
 21
-75.6953
  0
LINE
  8
0
 10
77.7246
 20
-85.8926
 11
81.1113
 21
-72.3086
  0
LINE
  8
0
 10
81.1113
 20
-72.3086
 11
94.6953
 21
-75.6953
  0
LINE
  8
0
 10
94.6953
 20
-75.6953
 11
91.3086
 21
-89.2793
  0
LINE
  8
0
 10
91.3086
 20
-89.2793
 11
77.7246
 21
-85.8926
  0
LINE
  8
0
 10
97.6416
 20
-74.9502
 11
97.4167
 21
-74.9024
  0
LINE
  8
0
 10
97.4167
 20
-74.9024
 11
97.2066
 21
-74.8088
  0
LINE
  8
0
 10
97.2066
 20
-74.8088
 11
97.0206
 21
-74.6736
  0
LINE
  8
0
 10
97.0206
 20
-74.6736
 11
96.8667
 21
-74.5028
  0
LINE
  8
0
 10
96.8667
 20
-74.5028
 11
96.7517
 21
-74.3036
  0
LINE
  8
0
 10
96.7517
 20
-74.3036
 11
96.6806
 21
-74.0849
  0
LINE
  8
0
 10
96.6806
 20
-74.0849
 11
96.6566
 21
-73.8562
  0
LINE
  8
0
 10
96.6566
 20
-73.8562
 11
96.6806
 21
-73.6275
  0
LINE
  8
0
 10
96.6806
 20
-73.6275
 11
96.7517
 21
-73.4088
  0
LINE
  8
0
 10
96.7517
 20
-73.4088
 11
96.8667
 21
-73.2096
  0
LINE
  8
0
 10
96.8667
 20
-73.2096
 11
97.0206
 21
-73.0387
  0
LINE
  8
0
 10
97.0206
 20
-73.0387
 11
97.2066
 21
-72.9036
  0
LINE
  8
0
 10
97.2066
 20
-72.9036
 11
97.4167
 21
-72.81
  0
LINE
  8
0
 10
97.4167
 20
-72.81
 11
97.6416
 21
-72.7622
  0
LINE
  8
0
 10
97.6416
 20
-72.7622
 11
97.8716
 21
-72.7622
  0
LINE
  8
0
 10
97.8716
 20
-72.7622
 11
98.0965
 21
-72.81
  0
LINE
  8
0
 10
98.0965
 20
-72.81
 11
98.3066
 21
-72.9036
  0
LINE
  8
0
 10
98.3066
 20
-72.9036
 11
98.4926
 21
-73.0387
  0
LINE
  8
0
 10
98.4926
 20
-73.0387
 11
98.6465
 21
-73.2096
  0
LINE
  8
0
 10
98.6465
 20
-73.2096
 11
98.7615
 21
-73.4088
  0
LINE
  8
0
 10
98.7615
 20
-73.4088
 11
98.8326
 21
-73.6275
  0
LINE
  8
0
 10
98.8326
 20
-73.6275
 11
98.8566
 21
-73.8562
  0
LINE
  8
0
 10
98.8566
 20
-73.8562
 11
98.8326
 21
-74.0849
  0
LINE
  8
0
 10
98.8326
 20
-74.0849
 11
98.7615
 21
-74.3036
  0
LINE
  8
0
 10
98.7615
 20
-74.3036
 11
98.6465
 21
-74.5028
  0
LINE
  8
0
 10
98.6465
 20
-74.5028
 11
98.4926
 21
-74.6736
  0
LINE
  8
0
 10
98.4926
 20
-74.6736
 11
98.3066
 21
-74.8088
  0
LINE
  8
0
 10
98.3066
 20
-74.8088
 11
98.0965
 21
-74.9024
  0
LINE
  8
0
 10
98.0965
 20
-74.9024
 11
97.8716
 21
-74.9502
  0
LINE
  8
0
 10
97.8716
 20
-74.9502
 11
97.6416
 21
-74.9502
  0
LINE
  8
0
 10
171.691
 20
-74.9503
 11
171.466
 21
-74.9025
  0
LINE
  8
0
 10
171.466
 20
-74.9025
 11
171.256
 21
-74.8089
  0
LINE
  8
0
 10
171.256
 20
-74.8089
 11
171.07
 21
-74.6738
  0
LINE
  8
0
 10
171.07
 20
-74.6738
 11
170.916
 21
-74.5029
  0
LINE
  8
0
 10
170.916
 20
-74.5029
 11
170.801
 21
-74.3037
  0
LINE
  8
0
 10
170.801
 20
-74.3037
 11
170.73
 21
-74.085
  0
LINE
  8
0
 10
170.73
 20
-74.085
 11
170.706
 21
-73.8563
  0
LINE
  8
0
 10
170.706
 20
-73.8563
 11
170.73
 21
-73.6276
  0
LINE
  8
0
 10
170.73
 20
-73.6276
 11
170.801
 21
-73.4089
  0
LINE
  8
0
 10
170.801
 20
-73.4089
 11
170.916
 21
-73.2097
  0
LINE
  8
0
 10
170.916
 20
-73.2097
 11
171.07
 21
-73.0388
  0
LINE
  8
0
 10
171.07
 20
-73.0388
 11
171.256
 21
-72.9037
  0
LINE
  8
0
 10
171.256
 20
-72.9037
 11
171.466
 21
-72.8101
  0
LINE
  8
0
 10
171.466
 20
-72.8101
 11
171.691
 21
-72.7623
  0
LINE
  8
0
 10
171.691
 20
-72.7623
 11
171.921
 21
-72.7623
  0
LINE
  8
0
 10
171.921
 20
-72.7623
 11
172.146
 21
-72.8101
  0
LINE
  8
0
 10
172.146
 20
-72.8101
 11
172.356
 21
-72.9037
  0
LINE
  8
0
 10
172.356
 20
-72.9037
 11
172.542
 21
-73.0388
  0
LINE
  8
0
 10
172.542
 20
-73.0388
 11
172.696
 21
-73.2097
  0
LINE
  8
0
 10
172.696
 20
-73.2097
 11
172.811
 21
-73.4089
  0
LINE
  8
0
 10
172.811
 20
-73.4089
 11
172.882
 21
-73.6276
  0
LINE
  8
0
 10
172.882
 20
-73.6276
 11
172.906
 21
-73.8563
  0
LINE
  8
0
 10
172.906
 20
-73.8563
 11
172.882
 21
-74.085
  0
LINE
  8
0
 10
172.882
 20
-74.085
 11
172.811
 21
-74.3037
  0
LINE
  8
0
 10
172.811
 20
-74.3037
 11
172.696
 21
-74.5029
  0
LINE
  8
0
 10
172.696
 20
-74.5029
 11
172.542
 21
-74.6738
  0
LINE
  8
0
 10
172.542
 20
-74.6738
 11
172.356
 21
-74.8089
  0
LINE
  8
0
 10
172.356
 20
-74.8089
 11
172.146
 21
-74.9025
  0
LINE
  8
0
 10
172.146
 20
-74.9025
 11
171.921
 21
-74.9503
  0
LINE
  8
0
 10
171.921
 20
-74.9503
 11
171.691
 21
-74.9503
  0
LINE
  8
0
 10
96.209
 20
-90.501
 11
99.5957
 21
-76.917
  0
LINE
  8
0
 10
99.5957
 20
-76.917
 11
113.18
 21
-80.3037
  0
LINE
  8
0
 10
113.18
 20
-80.3037
 11
109.793
 21
-93.8877
  0
LINE
  8
0
 10
109.793
 20
-93.8877
 11
96.209
 21
-90.501
  0
LINE
  8
0
 10
156.383
 20
-80.3037
 11
169.967
 21
-76.917
  0
LINE
  8
0
 10
169.967
 20
-76.917
 11
173.354
 21
-90.501
  0
LINE
  8
0
 10
173.354
 20
-90.501
 11
159.77
 21
-93.8877
  0
LINE
  8
0
 10
159.77
 20
-93.8877
 11
156.383
 21
-80.3037
  0
LINE
  8
0
 10
114.693
 20
-95.1094
 11
118.08
 21
-81.5254
  0
LINE
  8
0
 10
118.08
 20
-81.5254
 11
131.664
 21
-84.9121
  0
LINE
  8
0
 10
131.664
 20
-84.9121
 11
128.277
 21
-98.4971
  0
LINE
  8
0
 10
128.277
 20
-98.4971
 11
114.693
 21
-95.1094
  0
LINE
  8
0
 10
137.899
 20
-84.9131
 11
151.483
 21
-81.5254
  0
LINE
  8
0
 10
151.483
 20
-81.5254
 11
154.87
 21
-95.1094
  0
LINE
  8
0
 10
154.87
 20
-95.1094
 11
141.286
 21
-98.4971
  0
LINE
  8
0
 10
141.286
 20
-98.4971
 11
137.899
 21
-84.9131
  0
LINE
  8
0
 10
59.2529
 20
-100.92
 11
62.6396
 21
-87.3359
  0
LINE
  8
0
 10
62.6396
 20
-87.3359
 11
76.2236
 21
-90.7227
  0
LINE
  8
0
 10
76.2236
 20
-90.7227
 11
72.8369
 21
-104.307
  0
LINE
  8
0
 10
72.8369
 20
-104.307
 11
59.2529
 21
-100.92
  0
LINE
  8
0
 10
193.339
 20
-90.7227
 11
206.923
 21
-87.3359
  0
LINE
  8
0
 10
206.923
 20
-87.3359
 11
210.31
 21
-100.92
  0
LINE
  8
0
 10
210.31
 20
-100.92
 11
196.725
 21
-104.307
  0
LINE
  8
0
 10
196.725
 20
-104.307
 11
193.339
 21
-90.7227
  0
LINE
  8
0
 10
79.1698
 20
-89.9778
 11
78.9449
 21
-89.93
  0
LINE
  8
0
 10
78.9449
 20
-89.93
 11
78.7348
 21
-89.8364
  0
LINE
  8
0
 10
78.7348
 20
-89.8364
 11
78.5488
 21
-89.7012
  0
LINE
  8
0
 10
78.5488
 20
-89.7012
 11
78.3949
 21
-89.5303
  0
LINE
  8
0
 10
78.3949
 20
-89.5303
 11
78.2799
 21
-89.3312
  0
LINE
  8
0
 10
78.2799
 20
-89.3312
 11
78.2088
 21
-89.1125
  0
LINE
  8
0
 10
78.2088
 20
-89.1125
 11
78.1848
 21
-88.8838
  0
LINE
  8
0
 10
78.1848
 20
-88.8838
 11
78.2088
 21
-88.6551
  0
LINE
  8
0
 10
78.2088
 20
-88.6551
 11
78.2799
 21
-88.4364
  0
LINE
  8
0
 10
78.2799
 20
-88.4364
 11
78.3949
 21
-88.2372
  0
LINE
  8
0
 10
78.3949
 20
-88.2372
 11
78.5488
 21
-88.0663
  0
LINE
  8
0
 10
78.5488
 20
-88.0663
 11
78.7348
 21
-87.9312
  0
LINE
  8
0
 10
78.7348
 20
-87.9312
 11
78.9449
 21
-87.8376
  0
LINE
  8
0
 10
78.9449
 20
-87.8376
 11
79.1698
 21
-87.7898
  0
LINE
  8
0
 10
79.1698
 20
-87.7898
 11
79.3998
 21
-87.7898
  0
LINE
  8
0
 10
79.3998
 20
-87.7898
 11
79.6247
 21
-87.8376
  0
LINE
  8
0
 10
79.6247
 20
-87.8376
 11
79.8348
 21
-87.9312
  0
LINE
  8
0
 10
79.8348
 20
-87.9312
 11
80.0208
 21
-88.0663
  0
LINE
  8
0
 10
80.0208
 20
-88.0663
 11
80.1747
 21
-88.2372
  0
LINE
  8
0
 10
80.1747
 20
-88.2372
 11
80.2897
 21
-88.4364
  0
LINE
  8
0
 10
80.2897
 20
-88.4364
 11
80.3607
 21
-88.6551
  0
LINE
  8
0
 10
80.3607
 20
-88.6551
 11
80.3848
 21
-88.8838
  0
LINE
  8
0
 10
80.3848
 20
-88.8838
 11
80.3607
 21
-89.1125
  0
LINE
  8
0
 10
80.3607
 20
-89.1125
 11
80.2897
 21
-89.3312
  0
LINE
  8
0
 10
80.2897
 20
-89.3312
 11
80.1747
 21
-89.5303
  0
LINE
  8
0
 10
80.1747
 20
-89.5303
 11
80.0208
 21
-89.7012
  0
LINE
  8
0
 10
80.0208
 20
-89.7012
 11
79.8348
 21
-89.8364
  0
LINE
  8
0
 10
79.8348
 20
-89.8364
 11
79.6247
 21
-89.93
  0
LINE
  8
0
 10
79.6247
 20
-89.93
 11
79.3998
 21
-89.9778
  0
LINE
  8
0
 10
79.3998
 20
-89.9778
 11
79.1698
 21
-89.9778
  0
LINE
  8
0
 10
190.163
 20
-89.9779
 11
189.938
 21
-89.9301
  0
LINE
  8
0
 10
189.938
 20
-89.9301
 11
189.728
 21
-89.8365
  0
LINE
  8
0
 10
189.728
 20
-89.8365
 11
189.542
 21
-89.7014
  0
LINE
  8
0
 10
189.542
 20
-89.7014
 11
189.388
 21
-89.5305
  0
LINE
  8
0
 10
189.388
 20
-89.5305
 11
189.273
 21
-89.3313
  0
LINE
  8
0
 10
189.273
 20
-89.3313
 11
189.202
 21
-89.1126
  0
LINE
  8
0
 10
189.202
 20
-89.1126
 11
189.178
 21
-88.8839
  0
LINE
  8
0
 10
189.178
 20
-88.8839
 11
189.202
 21
-88.6552
  0
LINE
  8
0
 10
189.202
 20
-88.6552
 11
189.273
 21
-88.4365
  0
LINE
  8
0
 10
189.273
 20
-88.4365
 11
189.388
 21
-88.2373
  0
LINE
  8
0
 10
189.388
 20
-88.2373
 11
189.542
 21
-88.0664
  0
LINE
  8
0
 10
189.542
 20
-88.0664
 11
189.728
 21
-87.9313
  0
LINE
  8
0
 10
189.728
 20
-87.9313
 11
189.938
 21
-87.8377
  0
LINE
  8
0
 10
189.938
 20
-87.8377
 11
190.163
 21
-87.7899
  0
LINE
  8
0
 10
190.163
 20
-87.7899
 11
190.393
 21
-87.7899
  0
LINE
  8
0
 10
190.393
 20
-87.7899
 11
190.618
 21
-87.8377
  0
LINE
  8
0
 10
190.618
 20
-87.8377
 11
190.828
 21
-87.9313
  0
LINE
  8
0
 10
190.828
 20
-87.9313
 11
191.014
 21
-88.0664
  0
LINE
  8
0
 10
191.014
 20
-88.0664
 11
191.168
 21
-88.2373
  0
LINE
  8
0
 10
191.168
 20
-88.2373
 11
191.283
 21
-88.4365
  0
LINE
  8
0
 10
191.283
 20
-88.4365
 11
191.354
 21
-88.6552
  0
LINE
  8
0
 10
191.354
 20
-88.6552
 11
191.378
 21
-88.8839
  0
LINE
  8
0
 10
191.378
 20
-88.8839
 11
191.354
 21
-89.1126
  0
LINE
  8
0
 10
191.354
 20
-89.1126
 11
191.283
 21
-89.3313
  0
LINE
  8
0
 10
191.283
 20
-89.3313
 11
191.168
 21
-89.5305
  0
LINE
  8
0
 10
191.168
 20
-89.5305
 11
191.014
 21
-89.7014
  0
LINE
  8
0
 10
191.014
 20
-89.7014
 11
190.828
 21
-89.8365
  0
LINE
  8
0
 10
190.828
 20
-89.8365
 11
190.618
 21
-89.9301
  0
LINE
  8
0
 10
190.618
 20
-89.9301
 11
190.393
 21
-89.9779
  0
LINE
  8
0
 10
190.393
 20
-89.9779
 11
190.163
 21
-89.9779
  0
LINE
  8
0
 10
101.838
 20
-112.569
 11
102.08
 21
-111.598
  0
LINE
  8
0
 10
102.08
 20
-111.598
 11
100.563
 21
-111.22
  0
LINE
  8
0
 10
100.563
 20
-111.22
 11
100.563
 21
-111.22
  0
LINE
  8
0
 10
100.563
 20
-111.22
 11
86.9788
 21
-107.833
  0
LINE
  8
0
 10
86.9788
 20
-107.833
 11
86.9788
 21
-107.833
  0
LINE
  8
0
 10
86.9788
 20
-107.833
 11
85.4627
 21
-107.455
  0
LINE
  8
0
 10
85.4627
 20
-107.455
 11
85.2208
 21
-108.426
  0
LINE
  8
0
 10
85.2208
 20
-108.426
 11
78.6713
 21
-106.793
  0
LINE
  8
0
 10
78.6713
 20
-106.793
 11
78.9132
 21
-105.822
  0
LINE
  8
0
 10
78.9132
 20
-105.822
 11
77.7373
 21
-105.529
  0
LINE
  8
0
 10
77.7373
 20
-105.529
 11
81.124
 21
-91.9443
  0
LINE
  8
0
 10
81.124
 20
-91.9443
 11
82.2997
 21
-92.2375
  0
LINE
  8
0
 10
82.2997
 20
-92.2375
 11
82.5417
 21
-91.2672
  0
LINE
  8
0
 10
82.5417
 20
-91.2672
 11
89.0911
 21
-92.9001
  0
LINE
  8
0
 10
89.0911
 20
-92.9001
 11
88.8491
 21
-93.8709
  0
LINE
  8
0
 10
88.8491
 20
-93.8709
 11
90.3661
 21
-94.2492
  0
LINE
  8
0
 10
90.3661
 20
-94.2492
 11
90.3663
 21
-94.2487
  0
LINE
  8
0
 10
90.3663
 20
-94.2487
 11
103.95
 21
-97.6356
  0
LINE
  8
0
 10
103.95
 20
-97.6356
 11
103.95
 21
-97.6362
  0
LINE
  8
0
 10
103.95
 20
-97.6362
 11
105.466
 21
-98.0142
  0
LINE
  8
0
 10
105.466
 20
-98.0142
 11
105.708
 21
-97.0433
  0
LINE
  8
0
 10
105.708
 20
-97.0433
 11
112.258
 21
-98.6762
  0
LINE
  8
0
 10
112.258
 20
-98.6762
 11
112.016
 21
-99.6471
  0
LINE
  8
0
 10
112.016
 20
-99.6471
 11
113.192
 21
-99.9404
  0
LINE
  8
0
 10
113.192
 20
-99.9404
 11
109.805
 21
-113.524
  0
LINE
  8
0
 10
109.805
 20
-113.524
 11
108.63
 21
-113.231
  0
LINE
  8
0
 10
108.63
 20
-113.231
 11
108.388
 21
-114.202
  0
LINE
  8
0
 10
108.388
 20
-114.202
 11
101.838
 21
-112.569
  0
LINE
  8
0
 10
160.933
 20
-113.231
 11
159.757
 21
-113.524
  0
LINE
  8
0
 10
159.757
 20
-113.524
 11
156.37
 21
-99.9404
  0
LINE
  8
0
 10
156.37
 20
-99.9404
 11
157.546
 21
-99.6473
  0
LINE
  8
0
 10
157.546
 20
-99.6473
 11
157.304
 21
-98.6765
  0
LINE
  8
0
 10
157.304
 20
-98.6765
 11
163.853
 21
-97.0435
  0
LINE
  8
0
 10
163.853
 20
-97.0435
 11
164.096
 21
-98.0144
  0
LINE
  8
0
 10
164.096
 20
-98.0144
 11
165.613
 21
-97.6361
  0
LINE
  8
0
 10
165.613
 20
-97.6361
 11
165.612
 21
-97.6355
  0
LINE
  8
0
 10
165.612
 20
-97.6355
 11
179.197
 21
-94.2486
  0
LINE
  8
0
 10
179.197
 20
-94.2486
 11
179.197
 21
-94.2491
  0
LINE
  8
0
 10
179.197
 20
-94.2491
 11
180.713
 21
-93.871
  0
LINE
  8
0
 10
180.713
 20
-93.871
 11
180.471
 21
-92.9003
  0
LINE
  8
0
 10
180.471
 20
-92.9003
 11
187.02
 21
-91.2674
  0
LINE
  8
0
 10
187.02
 20
-91.2674
 11
187.262
 21
-92.2379
  0
LINE
  8
0
 10
187.262
 20
-92.2379
 11
188.439
 21
-91.9443
  0
LINE
  8
0
 10
188.439
 20
-91.9443
 11
191.825
 21
-105.529
  0
LINE
  8
0
 10
191.825
 20
-105.529
 11
190.65
 21
-105.822
  0
LINE
  8
0
 10
190.65
 20
-105.822
 11
190.892
 21
-106.793
  0
LINE
  8
0
 10
190.892
 20
-106.793
 11
184.342
 21
-108.426
  0
LINE
  8
0
 10
184.342
 20
-108.426
 11
184.1
 21
-107.455
  0
LINE
  8
0
 10
184.1
 20
-107.455
 11
182.583
 21
-107.833
  0
LINE
  8
0
 10
182.583
 20
-107.833
 11
182.583
 21
-107.834
  0
LINE
  8
0
 10
182.583
 20
-107.834
 11
168.999
 21
-111.221
  0
LINE
  8
0
 10
168.999
 20
-111.221
 11
168.999
 21
-111.22
  0
LINE
  8
0
 10
168.999
 20
-111.22
 11
167.483
 21
-111.598
  0
LINE
  8
0
 10
167.483
 20
-111.598
 11
167.725
 21
-112.569
  0
LINE
  8
0
 10
167.725
 20
-112.569
 11
161.175
 21
-114.202
  0
LINE
  8
0
 10
161.175
 20
-114.202
 11
160.933
 21
-113.231
  0
ENDSEC
  0
SECTION
  2
OBJECTS
  0
DICTIONARY
  0
ENDSEC
  0
EOF
